<svg width="320" height="320" viewBox="0 0 320 320" fill="none" xmlns="http://www.w3.org/2000/svg">
<path d="M26.4359 82.8867L160 5.7735L293.564 82.8867V237.113L160 314.226L26.4359 237.113V82.8867Z" fill="url(#paint0_linear_265_9677)" stroke="#1F1F1F" stroke-width="10"/>
<path fill-rule="evenodd" clip-rule="evenodd" d="M228 120.5L126.5 56.5L143 43L237.5 99.5L228 120.5ZM133.506 66.9507L209.523 114.799C194.614 119.835 179.197 128.126 174 140.5C167.511 155.95 168.959 173.19 171.567 184.383C163.357 190.276 153.144 198.071 148 203.5C164.113 196.115 170.437 193.73 173.531 192.563L173.962 192.401L174 192.5C175.833 191.667 181.4 190 189 190C223.4 190 241.333 219 246 233.5V236.5H150.171C139.622 215.857 121.608 199.862 103.475 188.031C88.2621 178.106 72.7794 170.991 61.1071 166.446C64.032 159.635 67.3697 152.587 70.5 147.5C75.8333 138.833 85.6111 128.833 95.3889 118.833C100.278 113.833 105.167 108.833 109.5 104C116.595 96.086 126.111 80.275 133.506 66.9507ZM59.4736 170.324C57.1343 175.984 55.1816 181.164 54 184.5C55.8333 188.5 61 197.4 67 201C73 204.6 87.5 209.5 94 211.5L99 206C108.167 209.5 130 223.1 144 249.5C157.6 249.5 217.667 250.5 246 251V240.5H145.799L144.846 238.517C135.233 218.522 117.815 202.745 99.65 190.894C85.3142 181.541 70.6875 174.746 59.4736 170.324Z" fill="#1F1F1F"/>
<defs>
<linearGradient id="paint0_linear_265_9677" x1="160" y1="0" x2="160" y2="320" gradientUnits="userSpaceOnUse">
<stop stop-color="#D0EFE0"/>
<stop offset="1" stop-color="#C6D5E3"/>
</linearGradient>
</defs>
</svg>
