<svg width="320" height="320" viewBox="0 0 320 320" fill="none" xmlns="http://www.w3.org/2000/svg">
<path d="M26.4359 82.8867L160 5.7735L293.564 82.8867V237.113L160 314.226L26.4359 237.113V82.8867Z" fill="url(#paint0_linear_265_9713)" stroke="#1F1F1F" stroke-width="10"/>
<path fill-rule="evenodd" clip-rule="evenodd" d="M179 50.4665C135.895 62.9169 104 107.46 104 160.5C104 213.54 135.895 258.083 179 270.533C171.162 272.797 162.954 274 154.5 274C99.5477 274 55 223.184 55 160.5C55 97.8157 99.5477 47 154.5 47C162.954 47 171.162 48.2028 179 50.4665Z" fill="#1F1F1F"/>
<path d="M257 109.5C240 112.5 144.956 123 137.5 123C130.044 123 124 116.956 124 109.5C124 102.044 130.044 96 137.5 96C144.956 96 241.5 106.5 257 109.5Z" fill="#1F1F1F"/>
<path d="M257 211.5C240 214.5 144.956 225 137.5 225C130.044 225 124 218.956 124 211.5C124 204.044 130.044 198 137.5 198C144.956 198 241.5 208.5 257 211.5Z" fill="#1F1F1F"/>
<path d="M278.5 160.5C261.5 163.5 132.956 174 125.5 174C118.044 174 112 167.956 112 160.5C112 153.044 118.044 147 125.5 147C132.956 147 263 157.5 278.5 160.5Z" fill="#1F1F1F"/>
<defs>
<linearGradient id="paint0_linear_265_9713" x1="160" y1="0" x2="160" y2="320" gradientUnits="userSpaceOnUse">
<stop stop-color="#D0EFE0"/>
<stop offset="1" stop-color="#C6D5E3"/>
</linearGradient>
</defs>
</svg>
