<svg width="320" height="320" viewBox="0 0 320 320" fill="none" xmlns="http://www.w3.org/2000/svg">
<path d="M26.4359 82.8867L160 5.7735L293.564 82.8867V237.113L160 314.226L26.4359 237.113V82.8867Z" fill="url(#paint0_linear_212_1525)" stroke="#270000" stroke-width="10"/>
<path d="M106.357 119.368C92.7304 104.591 81.9953 73.9522 81.9953 73.9522C81.9953 73.9522 112.634 84.6873 127.411 98.3141C157.703 126.248 202.939 174.778 202.939 174.778L182.821 194.896C182.821 194.896 134.291 149.659 106.357 119.368Z" fill="white"/>
<path fill-rule="evenodd" clip-rule="evenodd" d="M238.07 73.9094C238.07 73.9094 207.501 84.5753 192.771 98.1547C183.699 106.518 173.284 116.735 163.151 126.937C170.786 134.669 178.189 142.347 184.691 149.178C195.01 138.935 205.366 128.385 213.825 119.209C227.404 104.479 238.07 73.9094 238.07 73.9094ZM156.84 176.285C150.219 169.978 142.822 162.846 135.364 155.486C124.74 166.592 117.498 174.364 117.498 174.364L137.616 194.482C137.616 194.482 145.549 187.089 156.84 176.285Z" fill="white"/>
<path fill-rule="evenodd" clip-rule="evenodd" d="M123.72 188.345L145.359 209.983C145.359 209.983 127.508 221.14 120.562 214.194L109.334 202.965L109.334 202.965L97.9879 191.62C91.0424 184.674 102.199 166.823 102.199 166.823L123.72 188.345L123.72 188.345Z" fill="white"/>
<path fill-rule="evenodd" clip-rule="evenodd" d="M196.431 188.302L218.069 166.663C218.069 166.663 229.225 184.515 222.28 191.46L211.051 202.689L199.706 214.035C192.76 220.98 174.909 209.824 174.909 209.824L196.431 188.302Z" fill="white"/>
<path d="M97.2142 197.54L114.525 214.851L96.8342 232.542C92.1744 237.202 84.6192 237.202 79.9593 232.542L79.5233 232.106C74.8634 227.446 74.8634 219.891 79.5233 215.231L97.2142 197.54Z" fill="white"/>
<path d="M205.997 215.179L223.308 197.868L240.628 215.188C245.287 219.848 245.287 227.403 240.628 232.063L240.192 232.499C235.532 237.159 227.977 237.159 223.317 232.499L205.997 215.179Z" fill="white"/>
<defs>
<linearGradient id="paint0_linear_212_1525" x1="160" y1="0" x2="160" y2="320" gradientUnits="userSpaceOnUse">
<stop stop-color="#811700"/>
<stop offset="1" stop-color="#5A0000"/>
</linearGradient>
</defs>
</svg>
