<svg width="320" height="320" viewBox="0 0 320 320" fill="none" xmlns="http://www.w3.org/2000/svg">
<g clip-path="url(#clip0_212_1772)">
<path d="M26.4359 82.8867L160 5.7735L293.564 82.8867V237.113L160 314.226L26.4359 237.113V82.8867Z" fill="url(#paint0_linear_212_1772)" stroke="white" stroke-width="10"/>
<mask id="mask0_212_1772" style="mask-type:alpha" maskUnits="userSpaceOnUse" x="31" y="12" width="258" height="296">
<path d="M160 12L288.172 86V234L160 308L31.8282 234V86L160 12Z" fill="#D9D9D9"/>
</mask>
<g mask="url(#mask0_212_1772)">
<path fill-rule="evenodd" clip-rule="evenodd" d="M159.854 54L170.305 77.8869L159.854 88.3377L149.404 77.8869L159.854 54ZM86.6277 125.585L110.515 115.134L120.965 125.585L110.515 136.036L86.6277 125.585ZM208.598 115.134L232.485 125.585L208.598 136.036L198.147 125.585L208.598 115.134Z" fill="white"/>
<path fill-rule="evenodd" clip-rule="evenodd" d="M175.101 78.7916L159.854 94.038L144.608 78.7916L145.831 75.9971C128.789 80.6942 115.295 93.9475 110.259 110.846L111.419 110.338L126.666 125.585L111.419 140.831L110.285 140.335C116.636 161.51 136.275 176.94 159.518 176.94C182.748 176.94 202.377 161.529 208.741 140.373L207.693 140.831L192.447 125.585L207.693 110.338L208.767 110.808C203.798 94.1819 190.64 81.0904 173.973 76.215L175.101 78.7916ZM160.19 137.976C166.683 137.976 171.947 132.712 171.947 126.219C171.947 119.726 166.683 114.462 160.19 114.462C153.697 114.462 148.434 119.726 148.434 126.219C148.434 132.712 153.697 137.976 160.19 137.976Z" fill="white"/>
<path fill-rule="evenodd" clip-rule="evenodd" d="M159.518 183.658C163.784 183.658 167.943 183.199 171.947 182.326V232.868L148.434 227.442V182.602C152.022 183.295 155.728 183.658 159.518 183.658ZM148.434 234.831V247.596L171.947 253.022V240.257L148.434 234.831ZM171.947 260.412L148.434 254.985V267.75L171.947 273.176V260.412ZM171.947 280.566L148.434 275.14V287.904L171.947 293.33V280.566ZM171.947 300.72L148.434 295.294V372.771C148.434 379.264 153.697 384.528 160.19 384.528C166.683 384.528 171.947 379.264 171.947 372.771V300.72Z" fill="white"/>
<path d="M208.896 77.5132L203.326 91.6211C203.326 91.6211 201.347 88.2035 199.522 86.4612C197.697 84.7189 194.116 82.8303 194.116 82.8303L208.896 77.5132Z" fill="white"/>
<path d="M208.896 175.597L194.116 170.026C194.116 170.026 197.697 168.048 199.522 166.222C201.347 164.397 203.326 160.817 203.326 160.817L208.896 175.597Z" fill="white"/>
<path d="M110.813 175.597L124.921 170.026C124.921 170.026 121.503 168.048 119.761 166.222C118.018 164.397 116.13 160.817 116.13 160.817L110.813 175.597Z" fill="white"/>
<path d="M110.813 77.5132L116.13 91.6211C116.13 91.6211 118.018 88.2035 119.761 86.4612C121.503 84.719 124.921 82.8303 124.921 82.8303L110.813 77.5132Z" fill="white"/>
</g>
</g>
<defs>
<linearGradient id="paint0_linear_212_1772" x1="160" y1="0" x2="160" y2="320" gradientUnits="userSpaceOnUse">
<stop stop-color="#D59A42"/>
<stop offset="1" stop-color="#5A3600"/>
</linearGradient>
<clipPath id="clip0_212_1772">
<rect width="320" height="320" fill="white"/>
</clipPath>
</defs>
</svg>
