<svg width="320" height="320" viewBox="0 0 320 320" fill="none" xmlns="http://www.w3.org/2000/svg">
<path d="M26.4359 82.8867L160 5.7735L293.564 82.8867V237.113L160 314.226L26.4359 237.113V82.8867Z" fill="url(#paint0_linear_214_2521)" stroke="white" stroke-width="10"/>
<path fill-rule="evenodd" clip-rule="evenodd" d="M107.5 159.466C133.257 50.812 157.179 26.8489 160.101 24.2531V24C160.101 24 160.151 24.0387 160.25 24.1229C160.349 24.0387 160.399 24 160.399 24V24.2531C163.321 26.8489 187.243 50.812 213 159.466C178.332 159.466 175.642 187.208 175.642 187.208H169.963C169.963 187.208 169.963 169.205 169.963 160.056C169.963 155.078 164.932 151.497 160.399 151.497H160.399V151.502L160.352 151.501L160.305 151.499L160.25 151.498L160.21 151.499L160.148 151.501L160.101 151.502V151.497H160.1C155.568 151.497 150.537 155.078 150.537 160.056C150.537 169.205 150.537 187.208 150.537 187.208H144.858C144.858 187.208 142.168 159.466 107.5 159.466ZM146.651 71.2211C140.674 79.1897 127.883 105.338 124.535 146.185C129.616 124.64 139.778 82.7312 146.651 71.2211ZM173.848 71.2211C179.826 79.1897 192.617 105.338 195.965 146.185C190.884 124.64 180.722 82.7312 173.848 71.2211ZM148.592 189.225C145.495 189.225 142.985 191.736 142.985 194.833C142.985 197.93 145.495 200.44 148.592 200.44H172.793C175.89 200.44 178.401 197.93 178.401 194.833C178.401 191.736 175.89 189.225 172.793 189.225H148.592ZM142.985 208.409C142.985 205.312 145.495 202.801 148.592 202.801H172.793C175.89 202.801 178.401 205.312 178.401 208.409C178.401 211.506 175.89 214.016 172.793 214.016H148.592C145.495 214.016 142.985 211.506 142.985 208.409ZM148.592 216.377C145.495 216.377 142.985 218.888 142.985 221.985C142.985 225.082 145.495 227.592 148.592 227.592H172.793C175.89 227.592 178.401 225.082 178.401 221.985C178.401 218.888 175.89 216.377 172.793 216.377H148.592ZM147.117 229.953H174.269V312H147.117V229.953ZM160.25 153C164.16 153 168.5 156.02 168.5 160.218C168.5 167.934 168.5 187 168.5 187H152V160.218C152 156.02 156.34 153 160.25 153Z" fill="white"/>
<defs>
<linearGradient id="paint0_linear_214_2521" x1="160" y1="0" x2="160" y2="320" gradientUnits="userSpaceOnUse">
<stop stop-color="#00A8A8"/>
<stop offset="1" stop-color="#00AB1B"/>
</linearGradient>
</defs>
</svg>
