<svg width="320" height="320" viewBox="0 0 320 320" fill="none" xmlns="http://www.w3.org/2000/svg">
<path d="M26.4359 82.8867L160 5.7735L293.564 82.8867V237.113L160 314.226L26.4359 237.113V82.8867Z" fill="url(#paint0_linear_214_2624)" stroke="white" stroke-width="10"/>
<mask id="mask0_214_2624" style="mask-type:alpha" maskUnits="userSpaceOnUse" x="31" y="12" width="258" height="296">
<path d="M160 12L288.172 86V234L160 308L31.8282 234V86L160 12Z" fill="#D9D9D9"/>
</mask>
<g mask="url(#mask0_214_2624)">
<path d="M146 214H176V455C176 463.284 169.284 470 161 470C152.716 470 146 463.284 146 455V214Z" fill="white"/>
<path fill-rule="evenodd" clip-rule="evenodd" d="M145 180C136.716 180 130 186.716 130 195C130 203.284 136.716 210 145 210H176C184.284 210 191 203.284 191 195C191 186.716 184.284 180 176 180H145ZM160 204.445C164.971 204.445 169 200.416 169 195.445C169 190.474 164.971 186.445 160 186.445C155.029 186.445 151 190.474 151 195.445C151 200.416 155.029 204.445 160 204.445Z" fill="white"/>
<path d="M104.533 60.8748C107.33 63.8335 115.354 63.7744 115.354 63.7744C115.354 63.7744 111.36 70.4364 112.455 74.5958C108.756 71.3955 101.633 71.6962 101.633 71.6962C101.633 71.6962 105.37 64.9652 104.533 60.8748Z" fill="white"/>
<path d="M217.856 115C217.693 120.813 225.856 128.856 225.856 128.856C225.856 128.856 215.095 131.55 212 136.856C211.496 129.889 204 123 204 123C204 123 214.571 119.976 217.856 115Z" fill="white"/>
<path d="M122.707 137C127.999 142.598 143.181 142.486 143.181 142.486C143.181 142.486 135.623 155.09 137.695 162.96C130.696 156.905 117.221 157.474 117.221 157.474C117.221 157.474 124.29 144.739 122.707 137Z" fill="white"/>
<path fill-rule="evenodd" clip-rule="evenodd" d="M165 84V34.8307L199.742 84H165ZM157 84V34.8303L122.258 84H157ZM131.355 138.068L121.072 92H157L157 176.169H139.859L137.821 167.036L143.063 171.572L140.596 162.196C140.233 160.818 140.253 159.04 140.629 156.979C141 154.946 141.68 152.829 142.452 150.872C143.219 148.925 144.053 147.199 144.696 145.959C145.016 145.34 145.286 144.848 145.474 144.514C145.568 144.347 145.641 144.221 145.689 144.138C145.713 144.097 145.731 144.067 145.742 144.049L145.753 144.03L145.753 144.029L145.754 144.027L148.501 139.447L143.16 139.486L143.158 139.486L143.132 139.486C143.11 139.486 143.073 139.486 143.023 139.486C142.924 139.485 142.772 139.484 142.573 139.48C142.176 139.473 141.595 139.456 140.879 139.42C139.441 139.346 137.48 139.193 135.375 138.876C134.035 138.674 132.666 138.41 131.355 138.068ZM132.082 141.324L132.082 141.324C134.902 141.935 137.72 142.225 139.81 142.362C141.837 142.496 143.18 142.486 143.18 142.486L143.18 142.486C143.167 142.486 137.63 142.525 132.082 141.324ZM182.141 176.169H165L165 92H200.928L182.141 176.169Z" fill="white"/>
</g>
<defs>
<linearGradient id="paint0_linear_214_2624" x1="160" y1="0" x2="160" y2="320" gradientUnits="userSpaceOnUse">
<stop stop-color="#3C71FA"/>
<stop offset="1" stop-color="#69117E"/>
</linearGradient>
</defs>
</svg>
