<svg width="320" height="320" viewBox="0 0 320 320" fill="none" xmlns="http://www.w3.org/2000/svg">
<path d="M26.4359 82.8867L160 5.7735L293.564 82.8867V237.113L160 314.226L26.4359 237.113V82.8867Z" fill="url(#paint0_linear_214_2625)" stroke="white" stroke-width="10"/>
<path fill-rule="evenodd" clip-rule="evenodd" d="M138.465 57C134.047 57 130.465 60.5817 130.465 65V108.036C130.465 108.348 130.476 108.657 130.497 108.964H147.748V113.604C147.748 116.306 147.504 118.81 147.055 121.124C152.974 119.711 157.375 114.388 157.375 108.036V65C157.375 60.5817 153.793 57 149.375 57H138.465ZM123.938 108.964H98.3505L97.6983 109.16C97.5098 109.216 97.3177 109.276 97.1221 109.339C97.081 108.91 97.0599 108.475 97.0599 108.036V78.9189C97.0599 74.5007 100.642 70.9189 105.06 70.9189H115.97C120.388 70.9189 123.97 74.5006 123.97 78.9189V108.036C123.97 108.348 123.959 108.657 123.938 108.964ZM163.871 71.9595C163.871 67.5412 167.452 63.9595 171.871 63.9595H182.781C187.199 63.9595 190.781 67.5412 190.781 71.9595V108.036C190.781 115.467 184.757 121.491 177.326 121.491C169.895 121.491 163.871 115.467 163.871 108.036V71.9595ZM198.204 84.3739C198.204 80.274 201.528 76.9505 205.627 76.9505H217.691C221.79 76.9505 225.114 80.274 225.114 84.3739V108.036C225.114 115.467 219.09 121.491 211.659 121.491C204.228 121.491 198.204 115.467 198.204 108.036V84.3739ZM144.036 113.604H99.9594C93.4975 115.542 81.6357 121.887 77.9114 133.234C77.2929 134.545 76.8527 135.893 76.6447 137.266C74.3256 152.577 74.3256 166.032 76.6447 180.414C79.5007 198.127 112.834 208.716 112.834 208.716V287.5L160.917 313L209 287.5C209 287.5 208.411 237.018 211.194 218.46C211.906 213.712 215.042 211.003 218.169 208.301C221.327 205.573 224.477 202.852 225.113 198.045C228.083 175.608 226.829 142.847 225.857 125.793C221.966 128.908 217.03 130.77 211.659 130.77C204.806 130.77 198.66 127.738 194.492 122.941C190.324 127.738 184.179 130.77 177.326 130.77C170.722 130.77 164.776 127.955 160.623 123.459C157.552 126.783 153.501 129.189 148.929 130.217C144.424 139.524 138.23 145.395 131.201 148.899C127.7 150.645 124.075 151.761 120.477 152.457C128.666 153.682 140.032 155.916 153.633 159.706C179.252 166.846 184.447 190.694 183.932 201.513C183.81 204.073 181.636 206.049 179.077 205.927C176.517 205.805 174.541 203.632 174.663 201.072C175.076 192.405 170.806 174.125 151.142 168.645C128.748 162.404 112.955 160.603 108.174 160.462L103.671 160.329V144.225H108.311C114.886 144.225 121.361 143.437 127.061 140.595C131.265 138.499 135.776 135.533 139.359 130.313C139.318 130.304 139.277 130.296 139.237 130.287C142.092 126.272 144.036 120.842 144.036 113.604Z" fill="white"/>
<defs>
<linearGradient id="paint0_linear_214_2625" x1="160" y1="0" x2="160" y2="320" gradientUnits="userSpaceOnUse">
<stop stop-color="#F5F86E"/>
<stop offset="1" stop-color="#B8730B"/>
</linearGradient>
</defs>
</svg>
