<svg width="320" height="320" viewBox="0 0 320 320" fill="none" xmlns="http://www.w3.org/2000/svg">
<path d="M26.4359 82.8867L160 5.7735L293.564 82.8867V237.113L160 314.226L26.4359 237.113V82.8867Z" fill="url(#paint0_linear_252_9074)"/>
<path d="M26.4359 82.8867L160 5.7735L293.564 82.8867V237.113L160 314.226L26.4359 237.113V82.8867Z" fill="url(#paint1_radial_252_9074)"/>
<path d="M26.4359 82.8867L160 5.7735L293.564 82.8867V237.113L160 314.226L26.4359 237.113V82.8867Z" stroke="white" stroke-width="10"/>
<path fill-rule="evenodd" clip-rule="evenodd" d="M160 30C157 33 150.1 39.4 146.5 41C149.5 45 156.5 106 155.5 117C157.1 118.2 159.167 119.167 160 119.5C160.833 119.167 162.9 118.2 164.5 117C163.5 106 170.5 45 173.5 41C169.9 39.4 163 33 160 30ZM141 46C136 49.1667 124.4 56.6 118 61C110 66.5 88.9999 82.5 84.4999 107C80.2067 130.374 89.5662 165.58 92.6066 177.016C92.7531 177.567 92.885 178.063 92.9999 178.5C94.9999 186.1 96.5 198 97 203C94.3333 204.5 88.7 207.9 87.5 209.5C86.3 211.1 83.3333 220.5 82 225C91.3333 238 118.1 265.6 150.5 272C150.5 266.8 151.833 255.833 152.5 251C146 250 131.5 247 125.5 243C125.5 238 124 188 119.5 177C109.5 174 91.5 165.5 91.5 144C91.5 122.5 101.5 114.5 110.5 111.5C119.5 108.5 143 106.5 152.5 114C152.5 104 151 80 141 46ZM160 156.5H154C154.333 153.5 155 146.9 155 144.5C155 141.5 153 138 136 138C122.4 138 114.333 142.333 112 144.5C115.667 147.833 123.8 154.6 127 155C127.425 155.053 127.896 155.095 128.401 155.14C132.65 155.518 139.372 156.116 142.5 165.5C146 176 150 234 150 246.5C146 246.5 133 242 129.5 240.5C130.5 228.5 123.5 177.5 121.5 172.5C101 166 98 152 98 143C98 134 103.5 121.5 121.5 118.5C139.5 115.5 147.5 120.5 152 124C155.6 126.8 159 127.5 160 127.5C161 127.5 164.4 126.8 168 124C172.5 120.5 180.5 115.5 198.5 118.5C216.5 121.5 222 134 222 143C222 152 219 166 198.5 172.5C196.5 177.5 189.5 228.5 190.5 240.5C187 242 174 246.5 170 246.5C170 234 174 176 177.5 165.5C180.628 156.116 187.35 155.518 191.599 155.14C192.104 155.095 192.575 155.053 193 155C196.2 154.6 204.333 147.833 208 144.5C205.667 142.333 197.6 138 184 138C167 138 165 141.5 165 144.5C165 146.9 165.667 153.5 166 156.5H160ZM179 46C184 49.1667 195.6 56.6 202 61C210 66.5 231 82.5 235.5 107C239.793 130.374 230.434 165.58 227.393 177.016C227.299 177.371 227.211 177.702 227.13 178.01C227.084 178.181 227.041 178.344 227 178.5C225 186.1 223.5 198 223 203C225.667 204.5 231.3 207.9 232.5 209.5C233.7 211.1 236.667 220.5 238 225C228.667 238 201.9 265.6 169.5 272C169.5 266.8 168.167 255.833 167.5 251C174 250 188.5 247 194.5 243C194.5 238 196 188 200.5 177C210.5 174 228.5 165.5 228.5 144C228.5 122.5 218.5 114.5 209.5 111.5C200.5 108.5 177 106.5 167.5 114C167.5 104 169 80 179 46Z" fill="white"/>
<defs>
<linearGradient id="paint0_linear_252_9074" x1="160" y1="0" x2="160" y2="320" gradientUnits="userSpaceOnUse">
<stop stop-color="#D0EFE0"/>
<stop offset="1" stop-color="#C6D5E3"/>
</linearGradient>
<radialGradient id="paint1_radial_252_9074" cx="0" cy="0" r="1" gradientUnits="userSpaceOnUse" gradientTransform="translate(159.785 122.528) rotate(89.9375) scale(197.472 197.472)">
<stop stop-color="#0CA7FF"/>
<stop offset="1" stop-color="#3744BC"/>
</radialGradient>
</defs>
</svg>
