<svg width="320" height="320" viewBox="0 0 320 320" fill="none" xmlns="http://www.w3.org/2000/svg">
<path d="M26.4359 82.8867L160 5.7735L293.564 82.8867V237.113L160 314.226L26.4359 237.113V82.8867Z" fill="url(#paint0_linear_252_9207)"/>
<path d="M26.4359 82.8867L160 5.7735L293.564 82.8867V237.113L160 314.226L26.4359 237.113V82.8867Z" fill="url(#paint1_radial_252_9207)"/>
<path d="M26.4359 82.8867L160 5.7735L293.564 82.8867V237.113L160 314.226L26.4359 237.113V82.8867Z" stroke="#006149" stroke-width="10"/>
<path fill-rule="evenodd" clip-rule="evenodd" d="M159.989 175.011L128.13 144.331L152.123 118.372C152.647 105.654 150.235 78.174 136.39 69.9928C141.424 61.8118 154.482 50.5891 159.989 46.0002V46C159.989 46 159.989 46.0001 159.989 46.0001C159.989 46.0001 159.989 46 159.989 46V46.0002C165.496 50.5891 178.554 61.8118 183.588 69.9928C169.743 78.174 167.331 105.654 167.855 118.372L191.848 144.331L159.989 175.011ZM159.989 161.545L159.966 161.568L141.919 143.521L159.966 125.475L159.989 125.497V125.498L160.012 125.475L178.059 143.521L160.012 161.568L159.989 161.545V161.545ZM122.23 149.444C117.135 149.444 112.153 141.773 108.885 134.9C103.369 136.64 94.6973 142.47 94.6973 155.344C94.6973 169.504 99.9416 184.057 102.564 189.564V214.77L141.896 251.709L139.536 209.23L132.063 199.79C127.343 201.625 115.465 200.576 105.71 181.697C93.5174 158.097 102.564 142.758 106.89 140.398C113.813 154.872 126.557 154.557 132.063 152.591L160.383 181.697L187.915 152.591C193.422 154.557 206.165 154.872 213.088 140.398C217.415 142.758 226.461 158.097 214.268 181.697C204.513 200.576 192.635 201.625 187.915 199.79L180.442 209.23L178.082 251.709L217.415 214.77V189.564C220.037 184.057 225.281 169.504 225.281 155.344C225.281 142.47 216.61 136.64 211.093 134.9C207.825 141.773 202.844 149.444 197.748 149.444H194.208L197.748 145.118L177.295 120.338C177.558 110.374 179.498 88.5576 185.162 81.0057C188.505 86.1318 199.149 97.2171 208.289 106.323C221.205 100.328 232.521 83.7209 236.687 75.8927C253.364 105.471 239.703 157.967 230.788 180.517L228.638 213.843L229.214 214.343L231.181 228.109C213.744 244.367 176.037 276.409 164.709 274.521V207.263L180.442 185.63C187.129 188.252 202.783 187.597 211.908 163.997C204.985 166.514 193.028 167.406 187.915 167.537L160.383 199.79L132.063 167.537C126.95 167.406 114.993 166.514 108.07 163.997C117.196 187.597 132.85 188.252 139.536 185.63L155.269 207.263V274.521C143.942 276.409 106.235 244.367 88.7974 228.109L90.764 214.343L91.3408 213.843L89.1908 180.517C80.2754 157.967 66.6139 105.471 83.2909 75.8927C87.4575 83.7209 98.7738 100.328 111.689 106.323C120.829 97.2171 131.473 86.1318 134.816 81.0057C140.48 88.5576 142.421 110.374 142.683 120.338L122.23 145.118L125.77 149.444H122.23Z" fill="#006149"/>
<defs>
<linearGradient id="paint0_linear_252_9207" x1="160" y1="0" x2="160" y2="320" gradientUnits="userSpaceOnUse">
<stop stop-color="#D0EFE0"/>
<stop offset="1" stop-color="#C6D5E3"/>
</linearGradient>
<radialGradient id="paint1_radial_252_9207" cx="0" cy="0" r="1" gradientUnits="userSpaceOnUse" gradientTransform="translate(159.785 122.528) rotate(89.9375) scale(197.472 197.472)">
<stop stop-color="#69FFAE"/>
<stop offset="1" stop-color="#95BEA8"/>
</radialGradient>
</defs>
</svg>
