<svg width="320" height="320" viewBox="0 0 320 320" fill="none" xmlns="http://www.w3.org/2000/svg">
<path d="M26.4359 82.8867L160 5.7735L293.564 82.8867V237.113L160 314.226L26.4359 237.113V82.8867Z" fill="url(#paint0_linear_252_9278)"/>
<path d="M26.4359 82.8867L160 5.7735L293.564 82.8867V237.113L160 314.226L26.4359 237.113V82.8867Z" fill="url(#paint1_radial_252_9278)"/>
<path d="M26.4359 82.8867L160 5.7735L293.564 82.8867V237.113L160 314.226L26.4359 237.113V82.8867Z" stroke="#692600" stroke-width="10"/>
<path fill-rule="evenodd" clip-rule="evenodd" d="M148 56L144 168V198H177V168L173 56H148ZM80.4999 235.499L77.5 240.499L63.5 238.499L53 215.499L69 193.499V116.999L94.4999 78.4995L139.5 67.9995V78.4995C103.9 81.6995 85.3333 114.833 80.4999 130.999L71.5 142.499L77.5 162.499H81.9999V179.499L77.5 184.999L80.4999 235.499ZM240 235.499L243 240.499L257 238.499L267.5 215.499L251.5 193.499V116.999L226 78.4995L181 67.9995V78.4995C216.6 81.6995 235.166 114.833 240 130.999L249 142.499L243 162.499H238.5V179.499L243 184.999L240 235.499ZM131.5 221.5L107 225V245H94.0002L84.0002 243.5V186L88.5002 181.5V158H79.5002L75.0002 143L81.0002 135C93.5002 133 121.7 129 142.5 129C142.5 133.202 142.16 138.062 141.876 142.11C141.673 144.998 141.5 147.473 141.5 149C132.833 149 116.2 150.2 107 155V180C111.667 181.334 122.4 186.3 128 195.5C129.6 203.9 131 216.333 131.5 221.5ZM213.499 225L188.999 221.5C189.499 216.333 190.899 203.9 192.499 195.5C198.099 186.3 208.833 181.334 213.499 180V155C204.299 150.2 187.666 149 179 149C179 147.473 178.826 144.998 178.624 142.11C178.34 138.062 178 133.202 178 129C198.799 129 226.999 133 239.499 135L245.499 143L240.999 158H231.999V181.5L236.499 186V243.5L226.499 245H213.499V225Z" fill="#692600"/>
<defs>
<linearGradient id="paint0_linear_252_9278" x1="160" y1="0" x2="160" y2="320" gradientUnits="userSpaceOnUse">
<stop stop-color="#D0EFE0"/>
<stop offset="1" stop-color="#C6D5E3"/>
</linearGradient>
<radialGradient id="paint1_radial_252_9278" cx="0" cy="0" r="1" gradientUnits="userSpaceOnUse" gradientTransform="translate(159.785 122.528) rotate(89.9375) scale(197.472 197.472)">
<stop stop-color="#FFB341"/>
<stop offset="1" stop-color="#9F7360"/>
</radialGradient>
</defs>
</svg>
