<svg width="320" height="320" viewBox="0 0 320 320" fill="none" xmlns="http://www.w3.org/2000/svg">
<path d="M26.4359 82.8867L160 5.7735L293.564 82.8867V237.113L160 314.226L26.4359 237.113V82.8867Z" fill="url(#paint0_linear_252_9329)"/>
<path d="M26.4359 82.8867L160 5.7735L293.564 82.8867V237.113L160 314.226L26.4359 237.113V82.8867Z" fill="url(#paint1_radial_252_9329)"/>
<path d="M26.4359 82.8867L160 5.7735L293.564 82.8867V237.113L160 314.226L26.4359 237.113V82.8867Z" stroke="#28002C" stroke-width="10"/>
<path fill-rule="evenodd" clip-rule="evenodd" d="M160 39.0002C160 39.0002 184.21 38.8302 184.21 48.4153C184.21 61.2488 184.21 116.099 184.21 146.258C170.201 150.487 160 163.493 160 178.882C160 179.327 160.008 179.771 160.025 180.212L160 180.227V137.635C166.933 137.635 172.553 132.014 172.553 125.081C172.553 118.148 166.933 112.528 160 112.528V105.354C166.933 105.354 172.553 99.7338 172.553 92.8007C172.553 85.8677 166.933 80.2473 160 80.2472L160 73.0738C166.933 73.0738 172.553 67.4534 172.553 60.5203C172.553 53.5872 166.933 47.9668 160 47.9668L160 39.0002ZM189.59 52.4502V145.1C191.057 144.908 192.554 144.808 194.074 144.808C212.592 144.808 227.66 159.581 228.136 177.985H238.459V112.528L213.801 62.3137L189.59 52.4502ZM194.074 207.575C178.227 207.575 165.38 194.729 165.38 178.882C165.38 163.035 178.227 150.188 194.074 150.188C209.921 150.188 222.767 163.035 222.767 178.882C222.767 194.729 209.921 207.575 194.074 207.575ZM194.074 200.402C182.188 200.402 172.553 190.767 172.553 178.882C172.553 166.996 182.188 157.361 194.074 157.361C205.959 157.361 215.594 166.996 215.594 178.882C215.594 190.767 205.959 200.402 194.074 200.402ZM194.074 212.956C189.574 212.956 185.278 212.083 181.346 210.499L176.14 220.129L160 227.303V282L204.834 255.548L237.114 182.02H228.596L227.933 182.731C226.021 199.737 211.591 212.956 194.074 212.956ZM243.391 138.531L264.911 147.498L268.498 170.812L264.911 194.125L235.769 203.092L243.391 182.917V138.531Z" fill="#28002C"/>
<path fill-rule="evenodd" clip-rule="evenodd" d="M160 39.0002C160 39.0002 135.79 38.8302 135.79 48.4153C135.79 61.2488 135.79 116.099 135.79 146.258C149.799 150.487 160 163.493 160 178.882C160 179.327 159.992 179.771 159.975 180.212L160 180.227V137.635C153.067 137.635 147.447 132.014 147.447 125.081C147.447 118.148 153.067 112.528 160 112.528V105.354C153.067 105.354 147.447 99.7338 147.447 92.8007C147.447 85.8677 153.067 80.2473 160 80.2472L160 73.0738C153.067 73.0738 147.447 67.4534 147.447 60.5203C147.447 53.5872 153.067 47.9668 160 47.9668L160 39.0002ZM130.41 52.4502V145.1C128.943 144.908 127.446 144.808 125.926 144.808C107.408 144.808 92.3396 159.581 91.8641 177.985H81.5407V112.528L106.199 62.3137L130.41 52.4502ZM125.926 207.575C141.773 207.575 154.62 194.729 154.62 178.882C154.62 163.035 141.773 150.188 125.926 150.188C110.079 150.188 97.2326 163.035 97.2326 178.882C97.2326 194.729 110.079 207.575 125.926 207.575ZM125.926 200.402C137.812 200.402 147.447 190.767 147.447 178.882C147.447 166.996 137.812 157.361 125.926 157.361C114.041 157.361 104.406 166.996 104.406 178.882C104.406 190.767 114.041 200.402 125.926 200.402ZM125.926 212.956C130.426 212.956 134.722 212.083 138.654 210.499L143.86 220.129L160 227.303V282L115.166 255.548L82.8857 182.02H91.4042L92.0674 182.731C93.9794 199.737 108.409 212.956 125.926 212.956ZM76.609 138.531L55.0887 147.498L51.502 170.812L55.0887 194.125L84.2307 203.092L76.609 182.917V138.531Z" fill="#28002C"/>
<defs>
<linearGradient id="paint0_linear_252_9329" x1="160" y1="0" x2="160" y2="320" gradientUnits="userSpaceOnUse">
<stop stop-color="#D0EFE0"/>
<stop offset="1" stop-color="#C6D5E3"/>
</linearGradient>
<radialGradient id="paint1_radial_252_9329" cx="0" cy="0" r="1" gradientUnits="userSpaceOnUse" gradientTransform="translate(159.785 122.528) rotate(89.9375) scale(197.472 197.472)">
<stop stop-color="#AB69FF"/>
<stop offset="1" stop-color="#A07BA9"/>
</radialGradient>
</defs>
</svg>
