<svg width="320" height="320" viewBox="0 0 320 320" fill="none" xmlns="http://www.w3.org/2000/svg">
<path d="M26.4359 82.8867L160 5.7735L293.564 82.8867V237.113L160 314.226L26.4359 237.113V82.8867Z" fill="url(#paint0_linear_252_9590)"/>
<path d="M26.4359 82.8867L160 5.7735L293.564 82.8867V237.113L160 314.226L26.4359 237.113V82.8867Z" fill="url(#paint1_radial_252_9590)"/>
<path d="M26.4359 82.8867L160 5.7735L293.564 82.8867V237.113L160 314.226L26.4359 237.113V82.8867Z" stroke="#3B4814" stroke-width="10"/>
<path fill-rule="evenodd" clip-rule="evenodd" d="M155.587 106.959L143.929 115.619L140.932 109.291L141.265 103.295L139.266 96.301L142.93 89.3066L143.596 73.3194L148.259 60.996L148.925 56L158.584 59.9968L164.246 71.9872L165.579 81.6461L169.908 97.9663L166.578 109.624L165.579 108.291L155.587 106.959ZM104.627 148.592L98.6323 145.928L92.9701 137.934L86.6419 109.624L88.3072 98.2994L108.291 101.297L115.619 109.624L114.952 119.616L119.282 125.278L118.616 133.937L110.956 131.273L105.96 133.604L103.295 140.932L108.291 146.927L104.627 148.592ZM120.282 123.945L123.612 119.616L132.272 117.284L139.932 120.615L142.264 117.95L141.265 114.953L139.266 109.624V103.961L133.937 103.295L124.944 99.6316L116.618 104.628L118.616 109.624L116.618 119.616L120.282 123.945ZM167.91 111.622L169.908 103.961L171.574 101.297L180.233 97.9663L184.896 103.961L189.559 106.959L193.556 111.622V114.953L189.559 121.947L187.561 117.95L182.898 115.619L176.903 114.953L172.573 116.951L167.91 111.622ZM85.3096 113.953L69.9886 106.959L64.6596 115.952L77.3161 145.928L85.6427 150.924L95.6347 154.587L97.9661 149.591L90.6387 139.266L85.3096 113.953ZM191.891 106.959L195.554 110.956V115.619L190.891 124.612L192.557 127.942L199.218 126.277L203.548 128.608L206.879 134.27L203.881 141.265L207.878 142.93L211.875 140.266V129.608L221.867 114.953L223.532 90.6388L211.875 87.6413L200.55 91.305L198.219 93.3034L191.891 106.959ZM214.206 130.607V141.265L218.536 147.926H220.201L227.529 151.257L233.191 148.259L238.52 141.265L239.519 131.273L242.85 120.948L240.518 118.283L240.185 109.957L236.855 106.959L226.53 103.961L224.198 114.953L214.206 130.607ZM123.945 135.27L128.941 142.931L140.265 144.596L148.925 142.931L150.59 141.598L164.579 142.598L170.907 129.608V124.945L172.24 118.617L165.245 109.957L155.919 108.958L145.261 116.618L141.598 122.281L132.938 119.283L124.278 121.614L120.948 125.944L120.281 133.938L123.945 135.27ZM182.898 137.268L168.576 141.265L172.573 129.941L172.24 124.945L173.572 118.617L176.903 117.285L182.232 117.618L186.895 119.949L191.224 128.942L189.559 131.939L184.23 134.604L182.898 137.268ZM185.895 135.936L191.224 133.605L192.89 129.941L199.551 128.276L202.216 129.608L205.546 134.604L202.216 141.265L193.556 142.598H188.227L183.897 139.267L185.895 135.936ZM111.003 133.414L107.292 135.27L105.293 140.932L110.622 145.928L122.613 146.927L127.609 143.93L122.613 136.935L115.952 135.27L111.003 133.414ZM243.516 132.605H249.511L265.498 128.608C270.161 128.386 279.953 128.409 281.818 130.274C283.684 132.139 282.596 135.27 281.818 136.602L272.493 154.921H264.499L267.83 160.25C266.164 166.8 262.168 180.433 259.503 182.565C256.172 185.23 245.847 193.556 241.851 197.22C237.854 200.884 225.197 210.876 219.868 211.209C219.868 203.215 222.533 194.555 224.531 190.559C226.53 186.562 227.529 181.899 227.529 177.902C227.529 175.753 225.891 172.255 224.326 168.91C222.98 166.036 221.688 163.275 221.534 161.582C221.267 158.651 221.423 153.477 221.534 151.257L227.529 154.254L234.523 149.925L240.851 140.932L243.516 132.605ZM71.3514 138.696L75.6507 147.023L83.9774 152.589L93.3338 155.92V160.346L94.6355 167.244C94.6991 168.516 94.3501 170.32 93.9903 172.18C93.7219 173.567 93.4476 174.985 93.3338 176.237C93.1293 178.487 93.1759 179.391 93.2424 180.68C93.2842 181.489 93.3338 182.451 93.3338 183.993C93.3338 187.99 94.333 192.653 96.3314 196.65C98.3298 200.647 100.994 209.306 100.994 217.3C95.6652 216.967 83.0087 206.975 79.012 203.311C78.358 202.712 77.6943 202.101 77.0269 201.486L77.0259 201.485C73.6151 198.346 70.1095 195.119 67.3241 192.89C64.6596 190.759 60.6628 186.118 58.9974 179.568L61.662 175.238L56.666 174.239L37.6812 147.023C36.9041 145.69 35.8161 142.56 37.6812 140.695C39.5464 138.829 52.0031 135.714 56.666 135.936L71.3514 138.696ZM151.59 145.595L141.931 147.26L130.607 146.594L125.278 149.925L111.622 147.26L105.627 151.257L102.629 149.925L95.3016 159.25L96.9669 169.909L95.3016 189.559L102.629 206.546V219.535L117.284 244.515L134.936 255.839L161.915 263.5L186.895 254.507L212.874 235.856L216.204 214.872L215.538 198.552L223.532 178.901L218.203 168.576L217.537 156.919L211.209 145.595L206.879 147.26L202.549 143.929L186.895 147.26L180.9 140.599L169.242 145.595L151.59 143.929V145.595ZM112.621 184.896C113.62 182.565 117.484 177.902 124.945 177.902C132.405 177.902 138.045 183.453 139.933 186.229C137.934 187.006 132.139 188.56 124.945 188.56C117.75 188.56 113.731 186.118 112.621 184.896ZM204.547 184.896C203.548 182.565 199.685 177.902 192.224 177.902C184.763 177.902 179.123 183.453 177.236 186.229C179.234 187.006 185.03 188.56 192.224 188.56C199.418 188.56 203.437 186.118 204.547 184.896Z" fill="#3B4814"/>
<defs>
<linearGradient id="paint0_linear_252_9590" x1="160" y1="0" x2="160" y2="320" gradientUnits="userSpaceOnUse">
<stop stop-color="#D0EFE0"/>
<stop offset="1" stop-color="#C6D5E3"/>
</linearGradient>
<radialGradient id="paint1_radial_252_9590" cx="0" cy="0" r="1" gradientUnits="userSpaceOnUse" gradientTransform="translate(159.785 122.528) rotate(89.9375) scale(197.472 197.472)">
<stop stop-color="#2BF027"/>
<stop offset="1" stop-color="#86B372"/>
</radialGradient>
</defs>
</svg>
