<svg width="320" height="320" viewBox="0 0 320 320" fill="none" xmlns="http://www.w3.org/2000/svg">
<path d="M26.4359 82.8867L160 5.7735L293.564 82.8867V237.113L160 314.226L26.4359 237.113V82.8867Z" fill="url(#paint0_linear_252_9591)"/>
<path d="M26.4359 82.8867L160 5.7735L293.564 82.8867V237.113L160 314.226L26.4359 237.113V82.8867Z" fill="url(#paint1_radial_252_9591)"/>
<path d="M26.4359 82.8867L160 5.7735L293.564 82.8867V237.113L160 314.226L26.4359 237.113V82.8867Z" stroke="#FFC178" stroke-width="10"/>
<path fill-rule="evenodd" clip-rule="evenodd" d="M158.259 39.5V133.638C154.517 125.069 146.455 107.134 144.138 103.948C141.821 100.762 139.31 86.6897 138.345 80.0517C139.31 79.569 141.821 77.6621 144.138 73.8966C146.455 70.131 154.517 49.3966 158.259 39.5ZM103.224 201.345C102.935 190.917 97.5518 182.034 94.8966 178.897C92.8449 180.828 87.1483 184.183 80.7759 182.155C72.8104 179.621 64.4828 176 61.9483 171.655C60.7497 169.6 58.6601 166.412 56.2542 162.74L56.2535 162.739L56.2534 162.739C53.5725 158.648 50.499 153.958 47.8277 149.569C42.0346 163.328 48.5518 177.81 57.2415 194.103C64.1932 207.138 89.5863 219.328 101.414 223.793C102.138 220.655 103.514 211.772 103.224 201.345ZM217.276 201.345C217.566 190.917 222.948 182.034 225.603 178.897C227.655 180.828 233.352 184.183 239.724 182.155C247.69 179.621 256.017 176 258.552 171.655C259.75 169.6 261.84 166.412 264.246 162.741L264.246 162.74L264.247 162.739C266.928 158.648 270.001 153.958 272.672 149.569C278.466 163.328 271.948 177.81 263.259 194.103C256.307 207.138 230.914 219.328 219.086 223.793C218.362 220.655 216.986 211.772 217.276 201.345ZM162.241 133.638V39.5C165.983 49.3966 174.045 70.131 176.362 73.8966C178.679 77.6621 181.19 79.569 182.155 80.0517C181.19 86.6897 178.679 100.762 176.362 103.948C174.045 107.134 165.983 125.069 162.241 133.638ZM135.81 165.5C130.983 165.017 121.11 162.821 115.897 160.793C109.379 158.259 103.224 153.19 103.224 144.862C112.638 133.276 117.135 124.971 124.224 111.19C125.263 109.17 126.349 107.125 127.426 105.096C132.055 96.3773 136.535 87.9413 136.535 82.9483C137.407 86.8751 137.929 89.8672 138.382 92.4642C139.057 96.3327 139.58 99.3248 140.879 103.224C141.704 105.697 143.935 110.306 146.387 115.371L146.387 115.371L146.387 115.371C150.398 123.657 155 133.164 155 136.534C153.673 139.023 149.314 145.43 144.833 152.016L144.833 152.016L144.832 152.017C141.49 156.93 138.079 161.942 135.81 165.5ZM204.604 160.793C199.39 162.821 189.517 165.017 184.69 165.5C182.422 161.943 179.013 156.933 175.672 152.022L175.67 152.019L175.669 152.018L175.668 152.018L175.668 152.017L175.668 152.017L175.668 152.016C171.187 145.431 166.827 139.023 165.5 136.534C165.5 133.164 170.102 123.657 174.113 115.371L174.113 115.371C176.565 110.306 178.797 105.697 179.621 103.224C180.921 99.3248 181.443 96.3327 182.118 92.4642L182.118 92.4635C182.571 89.8666 183.093 86.8747 183.966 82.9483C183.966 87.9413 188.445 96.3772 193.074 105.096L193.074 105.096L193.075 105.098C194.152 107.126 195.237 109.17 196.276 111.19C203.365 124.971 207.862 133.276 217.276 144.862C217.276 153.19 211.121 158.259 204.604 160.793ZM132.914 272.31L120.604 217.638C116.259 214.983 107.207 208.369 105.759 203.155C105.759 214.017 105.759 221.983 103.948 224.517C107.569 226.328 114.086 233.207 116.259 250.586C122.341 260.434 129.897 269.172 132.914 272.31ZM199.897 217.638L187.586 272.31C190.604 269.172 198.159 260.434 204.241 250.586C206.414 233.207 212.931 226.328 216.552 224.517C214.741 221.983 214.741 214.017 214.741 203.155C213.293 208.369 204.241 214.983 199.897 217.638ZM138.707 166.948L143.414 168.759L160.431 144.138L177.086 168.759L181.793 166.948L160.431 135.086L138.707 166.948ZM160.431 210.759L160.25 210.523L160.069 210.759V210.288L156.81 206.052L151.741 192.655L160.069 189.879V189.759L160.25 189.819L160.431 189.759V189.879L168.759 192.655L163.69 206.052L160.431 210.288V210.759ZM149.569 191.569L159.707 187.948C156.69 182.759 148.41 171.872 139.431 169.845C138.28 169.585 137.087 169.321 135.866 169.051C125.183 166.689 112.369 163.857 106.845 158.983C101.921 154.638 99.9656 148 99.6035 145.224L100.328 158.983C102.983 160.672 108.728 165.066 110.466 169.121C112.204 173.176 113.845 180.707 114.448 183.966C121.569 183.966 138.562 185.486 149.569 191.569ZM160.793 187.948L170.931 191.569C181.938 185.486 198.931 183.966 206.052 183.966C206.655 180.707 208.297 173.176 210.035 169.121C211.772 165.066 217.517 160.672 220.172 158.983L220.897 145.224C220.535 148 218.579 154.638 213.655 158.983C208.131 163.857 195.318 166.689 184.634 169.051C183.413 169.321 182.22 169.585 181.069 169.845C172.09 171.872 163.81 182.759 160.793 187.948ZM97.7932 160.431C99.6035 161.517 104.021 164.921 107.207 169.845C110.393 174.769 111.672 182.034 111.914 185.052C112.276 187.224 114.738 192.945 121.69 198.448C123.954 200.241 125.776 201.591 127.251 202.684L127.252 202.685L127.252 202.685C131.438 205.787 132.835 206.822 133.638 210.034C134.507 213.51 146.069 257.828 151.741 279.552L137.621 281C133.517 260.483 124.586 218.507 121.69 214.741C120.156 212.747 118.557 211.663 116.838 210.497C114.499 208.911 111.939 207.175 109.017 202.793C106.053 198.347 105.318 194.892 104.639 191.703C104.157 189.438 103.703 187.307 102.5 185.052L96.707 174.19C97.4311 172.017 98.6621 166.224 97.7932 160.431ZM213.293 169.845C216.479 164.921 220.897 161.517 222.707 160.431C221.838 166.224 223.069 172.017 223.793 174.19L218 185.052C216.797 187.307 216.344 189.438 215.861 191.703C215.182 194.892 214.447 198.347 211.483 202.793C208.562 207.175 206.001 208.911 203.663 210.497C201.943 211.663 200.344 212.747 198.81 214.741C195.914 218.507 186.983 260.483 182.879 281L168.759 279.552C174.431 257.828 185.993 213.51 186.862 210.034C187.665 206.822 189.062 205.787 193.248 202.685C194.724 201.591 196.546 200.241 198.81 198.448C205.762 192.945 208.224 187.224 208.586 185.052C208.828 182.034 210.107 174.769 213.293 169.845ZM172.668 168.47L160.136 149.044L147.603 168.47L160.136 181.002L172.668 168.47Z" fill="#FFC178"/>
<defs>
<linearGradient id="paint0_linear_252_9591" x1="160" y1="0" x2="160" y2="320" gradientUnits="userSpaceOnUse">
<stop stop-color="#D0EFE0"/>
<stop offset="1" stop-color="#C6D5E3"/>
</linearGradient>
<radialGradient id="paint1_radial_252_9591" cx="0" cy="0" r="1" gradientUnits="userSpaceOnUse" gradientTransform="translate(159.785 122.528) rotate(89.9375) scale(197.472 197.472)">
<stop stop-color="#E34A4A"/>
<stop offset="1" stop-color="#AF653A"/>
</radialGradient>
</defs>
</svg>
