<svg width="320" height="320" viewBox="0 0 320 320" fill="none" xmlns="http://www.w3.org/2000/svg">
<path d="M26.4359 82.8867L160 5.7735L293.564 82.8867V237.113L160 314.226L26.4359 237.113V82.8867Z" fill="url(#paint0_linear_252_9592)"/>
<path d="M26.4359 82.8867L160 5.7735L293.564 82.8867V237.113L160 314.226L26.4359 237.113V82.8867Z" fill="url(#paint1_radial_252_9592)"/>
<path d="M26.4359 82.8867L160 5.7735L293.564 82.8867V237.113L160 314.226L26.4359 237.113V82.8867Z" stroke="#001560" stroke-width="10"/>
<path fill-rule="evenodd" clip-rule="evenodd" d="M159.996 53L152.353 87.1381L151.334 90.0254L152.353 92.9127V98.6873L159.996 94.2714L167.639 98.6873V92.9127L168.658 90.0254L167.639 87.1381L159.996 53ZM109.213 134.863L98.683 133.165L101.57 145.903L92.3988 135.543L89.3417 134.354L87.4734 129.938L57.2417 92.573L96.3052 123.654L100.042 124.503L101.57 128.919L109.213 134.863ZM133.84 161.698L130.443 148.79L112.95 136.562L101.57 135.883L104.797 148.79L121.102 160.849L133.84 161.698ZM211.288 134.863L221.818 133.165L218.931 145.903L228.103 135.543L231.16 134.354L233.028 129.938L263.26 92.573L224.196 123.654L220.46 124.503L218.931 128.919L211.288 134.863ZM186.661 161.698L190.058 148.79L207.552 136.562L218.931 135.883L215.704 148.79L199.399 160.849L186.661 161.698ZM129.085 175.456L145.729 181.74C145.729 181.74 143.678 179.363 143.181 177.494C142.722 175.763 143.181 172.908 143.181 172.908L121.951 169.511L113.289 187.684C113.938 189.225 114.084 191.901 114.244 194.835C114.531 200.092 114.863 206.18 118.215 208.065C118.484 208.216 118.814 208.381 119.19 208.568L119.191 208.569C122.618 210.275 129.85 213.877 129.085 226.578L126.707 236.768L116.346 249.337L107.345 267L133.5 250.865L135.029 234.39L136.388 205.348L126.707 198.724L120.932 187.175L129.085 175.456ZM174.772 181.74L191.417 175.456L199.569 187.175L193.795 198.724L184.114 205.348L185.472 234.39L187.001 250.865L213.156 267L204.155 249.337L193.795 236.768L191.417 226.578C190.652 213.877 197.883 210.275 201.31 208.569L201.311 208.568C201.688 208.381 202.018 208.216 202.287 208.065C205.639 206.18 205.971 200.092 206.257 194.835V194.834C206.417 191.9 206.563 189.225 207.212 187.684L198.55 169.511L177.32 172.908C177.32 172.908 177.78 175.763 177.32 177.494C176.824 179.363 174.772 181.74 174.772 181.74ZM160.251 188.569C159.542 188.87 154.504 191.101 149.466 195.667C149.936 194.83 150.536 194.112 151.14 193.389L151.14 193.389C152.499 191.763 153.881 190.108 153.881 187.005C153.881 181.4 148.956 181.06 146.578 181.06C145.389 179.702 144.54 176.644 144.54 173.757C152.334 168.605 158.084 160.146 160.166 156.246V155.924C160.193 155.977 160.222 156.031 160.251 156.087C160.28 156.031 160.308 155.977 160.335 155.924V156.246C162.418 160.146 168.167 168.605 175.961 173.757C175.961 176.644 175.112 179.702 173.923 181.06C171.545 181.06 166.62 181.4 166.62 187.005C166.62 190.108 168.003 191.763 169.361 193.389L169.361 193.389C169.966 194.112 170.565 194.83 171.036 195.667C165.997 191.101 160.959 188.87 160.251 188.569ZM160.505 191.487C158.995 192.084 147.937 196.653 147.937 202.29C147.937 214.639 150.741 222.313 155.31 234.815C156.854 239.039 158.599 243.814 160.505 249.506V250.016L160.59 249.761L160.676 250.016V249.506C162.582 243.814 164.327 239.039 165.871 234.815C170.44 222.313 173.244 214.639 173.244 202.29C173.244 196.653 162.186 192.084 160.676 191.487V191.42C160.676 191.42 160.646 191.431 160.59 191.453C160.535 191.431 160.505 191.42 160.505 191.42V191.487ZM150.69 204.179C149.635 204.357 148.85 205.602 149.331 206.557C150.69 209.254 152.558 215.049 152.558 215.049C152.558 215.049 153.068 209.272 152.728 206.217C152.603 205.099 151.8 203.993 150.69 204.179ZM171.51 206.557C171.991 205.602 171.206 204.357 170.151 204.179C169.041 203.993 168.238 205.099 168.113 206.217C167.774 209.272 168.283 215.049 168.283 215.049C168.283 215.049 170.151 209.254 171.51 206.557ZM152.353 111.086L159.996 100.046L167.639 111.086V122.635L159.996 130.957L152.353 122.635V111.086ZM159.826 136.052L152.523 127.56V136.052H149.126L146.578 140.298L140.634 138.94L137.577 141.997L133.5 143.186L129.934 145.563L131.972 148.111L135.878 164.076L122.631 163.227V166.284L144.37 169.681C145.219 169.285 147.733 167.847 150.994 165.265C154.255 162.683 158.241 156.15 159.826 153.206V136.052ZM167.979 127.56L160.676 136.052V153.206C162.261 156.15 166.246 162.683 169.507 165.265C172.768 167.847 175.282 169.285 176.131 169.681L197.871 166.284V163.227L184.623 164.076L188.529 148.111L190.568 145.563L187.001 143.186L182.925 141.997L179.868 138.94L173.923 140.298L171.376 136.052H167.979V127.56Z" fill="#001560"/>
<defs>
<linearGradient id="paint0_linear_252_9592" x1="160" y1="0" x2="160" y2="320" gradientUnits="userSpaceOnUse">
<stop stop-color="#D0EFE0"/>
<stop offset="1" stop-color="#C6D5E3"/>
</linearGradient>
<radialGradient id="paint1_radial_252_9592" cx="0" cy="0" r="1" gradientUnits="userSpaceOnUse" gradientTransform="translate(159.785 122.528) rotate(89.9375) scale(197.472 197.472)">
<stop stop-color="#31A8FF"/>
<stop offset="1" stop-color="#66A0E3"/>
</radialGradient>
</defs>
</svg>
