<svg width="320" height="320" viewBox="0 0 320 320" fill="none" xmlns="http://www.w3.org/2000/svg">
<path d="M26.4359 82.8867L160 5.7735L293.564 82.8867V237.113L160 314.226L26.4359 237.113V82.8867Z" fill="url(#paint0_linear_252_9593)"/>
<path d="M26.4359 82.8867L160 5.7735L293.564 82.8867V237.113L160 314.226L26.4359 237.113V82.8867Z" fill="url(#paint1_radial_252_9593)"/>
<path d="M26.4359 82.8867L160 5.7735L293.564 82.8867V237.113L160 314.226L26.4359 237.113V82.8867Z" stroke="#FFFCB9" stroke-width="10"/>
<path fill-rule="evenodd" clip-rule="evenodd" d="M111.811 157.167C113.284 151.173 118.689 138.363 128.533 135.082C121.718 133.315 116.018 131.822 114.02 131.296V112.366L160.018 121.503V121.516L160.05 121.509L160.082 121.516V121.503L206.081 112.366V131.296C204.083 131.822 198.383 133.315 191.568 135.082C201.411 138.363 206.817 151.173 208.289 157.167L242.363 65.3571C241.132 67.8204 239.914 70.4746 238.672 73.1839L238.672 73.1849C232.594 86.4375 225.913 101.008 213.968 101.008C199.582 101.008 198.299 75.3479 199.455 62.5176C193.251 77.5563 179.2 107.634 172.638 107.634C166.182 107.634 161.437 90.3326 160.082 81.2598V80.8165C160.072 80.8908 160.061 80.9657 160.05 81.0412C160.039 80.9657 160.029 80.8908 160.018 80.8165V81.2598C158.664 90.3326 153.918 107.634 147.463 107.634C140.9 107.634 126.85 77.5563 120.645 62.5176C121.802 75.3479 120.519 101.008 106.132 101.008C94.1877 101.008 87.5061 86.4375 81.429 73.1849C80.1865 70.4752 78.9692 67.8207 77.7374 65.3571L111.811 157.167ZM118.121 127.195V119.307L160.05 126.243L201.98 119.307V127.195C190.97 128.977 167.229 135.673 160.082 148.22V148.333C160.072 148.314 160.061 148.295 160.05 148.276C160.04 148.295 160.029 148.314 160.018 148.333V148.22C152.872 135.673 129.13 128.977 118.121 127.195ZM126.64 202.914C115.787 198.623 111.601 186.613 110.865 181.145C110.865 154.138 126.219 141.497 133.897 138.552C129.48 144.652 120.646 160.385 120.646 174.519C120.646 186.75 125.03 191.119 129.717 195.789C131.801 197.865 133.945 200.001 135.79 202.914C135.79 219.133 140.857 230.448 145.833 241.559C150.634 252.279 155.35 262.81 155.35 277.372C155.35 267.593 149.94 260.82 144.765 254.342C140.757 249.326 136.891 244.486 135.79 238.565C125.051 231.232 125.836 218.027 126.413 208.338C126.531 206.356 126.64 204.521 126.64 202.914ZM109.287 161.584L94.4587 122.147C90.0417 128.352 80.5767 143.159 78.0527 152.75C87.139 154.517 97.6136 152.855 101.715 151.804C96.2465 154.328 83.5425 159.817 76.4753 161.584C65.1174 170.923 65.2225 188.402 66.6949 195.974C68.3775 193.45 72.5631 187.897 75.8443 185.878C86.5713 199.129 86.5713 218.058 85.3093 226.261C89.0953 238.25 98.8757 247.715 105.817 252.448C104.807 236.042 110.023 225.63 112.758 222.475C110.865 218.689 107.52 209.477 109.287 202.915C109.287 211.263 114.545 220.485 117.175 224.053C116.018 226.472 113.704 234.591 113.704 247.715C113.704 264.121 125.378 273.586 131.057 278.003C129.479 273.271 130.11 267.592 132.634 261.913C134.409 272.56 143.924 280.356 149.558 284.972C150.936 286.101 152.082 287.04 152.826 287.784L152.826 287.784C155.855 290.813 159.557 294.514 160.503 295.987V282.736C157.979 280.738 151.312 275.101 149.04 268.538C148.506 264.267 144.156 258.89 140.013 253.769C136.812 249.812 133.734 246.008 132.634 242.983C119.552 230.969 120.929 216.922 121.662 209.444L121.662 209.444C121.795 208.085 121.907 206.943 121.907 206.07C114.335 201.653 107.079 193.45 107.079 182.092C107.079 173.005 108.551 164.634 109.287 161.584ZM193.46 202.914C204.314 198.623 208.499 186.613 209.235 181.145C209.235 154.138 193.881 141.497 186.204 138.552C190.621 144.652 199.455 160.385 199.455 174.519C199.455 186.75 195.07 191.119 190.383 195.789C188.299 197.865 186.156 200.001 184.311 202.914C184.311 219.133 179.244 230.448 174.267 241.559C169.466 252.279 164.75 262.81 164.75 277.372C164.75 267.593 170.161 260.82 175.336 254.342C179.343 249.326 183.209 244.486 184.311 238.565C195.05 231.232 194.264 218.027 193.688 208.338V208.338C193.57 206.356 193.46 204.521 193.46 202.914ZM210.813 161.584L225.642 122.147C230.059 128.352 239.524 143.159 242.048 152.75C232.962 154.517 222.487 152.855 218.385 151.804C223.854 154.328 236.558 159.817 243.625 161.584C254.983 170.923 254.878 188.402 253.406 195.974C251.723 193.45 247.537 187.897 244.256 185.878C233.529 199.129 233.529 218.058 234.791 226.261C231.005 238.25 221.225 247.715 214.284 252.448C215.293 236.042 210.077 225.63 207.343 222.475C209.236 218.689 212.58 209.477 210.813 202.915C210.813 211.263 205.555 220.485 202.926 224.053C204.083 226.472 206.396 234.591 206.396 247.715C206.396 264.121 194.723 273.586 189.044 278.003C190.622 273.271 189.991 267.592 187.467 261.913C185.692 272.56 176.177 280.356 170.542 284.972C169.164 286.101 168.019 287.04 167.275 287.784C164.246 290.812 161.47 294.514 160.523 295.987V282.736C163.047 280.738 168.789 275.101 171.061 268.538C171.595 264.267 175.944 258.89 180.088 253.769C183.289 249.812 186.366 246.008 187.467 242.983C200.548 230.969 199.172 216.922 198.439 209.444C198.305 208.085 198.193 206.943 198.193 206.07C205.765 201.653 213.022 193.45 213.022 182.092C213.022 173.005 211.55 164.634 210.813 161.584Z" fill="#FFFCB9"/>
<defs>
<linearGradient id="paint0_linear_252_9593" x1="160" y1="0" x2="160" y2="320" gradientUnits="userSpaceOnUse">
<stop stop-color="#D0EFE0"/>
<stop offset="1" stop-color="#C6D5E3"/>
</linearGradient>
<radialGradient id="paint1_radial_252_9593" cx="0" cy="0" r="1" gradientUnits="userSpaceOnUse" gradientTransform="translate(159.785 122.528) rotate(89.9375) scale(197.472 197.472)">
<stop stop-color="#FFAC0C"/>
<stop offset="1" stop-color="#BC9737"/>
</radialGradient>
</defs>
</svg>
