<svg width="25" height="25" viewBox="0 0 25 25" fill="none" xmlns="http://www.w3.org/2000/svg">
<path fill-rule="evenodd" clip-rule="evenodd" d="M12.5 10.2309C10.9947 8.09887 9.18965 4.69492 9.18965 0.629883C5.81035 1.67349 2.43104 3.76044 0.5 6.36901C3.87931 7.93423 6.77586 12.6299 6.77586 12.6299C6.77586 12.6299 3.87931 17.3255 0.5 18.8908C2.43104 21.4993 5.81035 23.5863 9.18965 24.6299C9.18965 20.5648 10.9947 17.1609 12.5 15.0289C14.0053 17.1609 15.8103 20.5648 15.8103 24.6299C19.1897 23.5863 22.569 21.4993 24.5 18.8908C21.1207 17.3255 18.2241 12.6299 18.2241 12.6299C18.2241 12.6299 21.1207 7.93423 24.5 6.36901C22.569 3.76045 19.1897 1.67349 15.8103 0.629883C15.8103 4.69492 14.0053 8.09887 12.5 10.2309Z" fill="white"/>
</svg>
