<svg fill="none" xmlns="http://www.w3.org/2000/svg">
<path d="M51.1692 51.1692L160 6.08996L268.831 51.1692L313.91 160L268.831 268.831L160 313.91L51.1692 268.831L6.08996 160L51.1692 51.1692Z" fill="url(#paint0_radial_247_8449)" stroke="white" stroke-width="11.2528"/>
<path fill-rule="evenodd" clip-rule="evenodd" d="M94.2378 245.094C94.2378 252.4 92.1505 258.335 87.9759 262.901V263.153H53.6471V274.447L160 311.624L266.353 274.447V263.153H231.413V262.901C227.369 257.422 225.347 251.291 225.347 244.507C225.347 241.245 225.869 237.332 226.912 232.766L246.676 150.382C247.851 145.555 249.547 141.055 251.764 136.88C253.982 132.575 256.722 129.509 259.983 127.683V127.292H216.541L216.345 127.683C220.389 131.336 222.412 136.554 222.412 143.338C222.412 146.077 222.02 148.947 221.237 151.948L211.649 191.085C208.518 204.522 206.496 217.829 205.583 231.005H204.8C203.234 223.569 201.343 216.72 199.125 210.458C197.038 204.196 193.776 196.629 189.341 187.758L170.359 150.578C167.881 145.751 165.989 141.577 164.684 138.054C163.38 134.401 162.075 130.423 160.771 126.117H159.597C157.77 132.901 154.574 141.12 150.008 150.774L129.07 193.629C122.938 206.153 118.372 218.611 115.372 231.005H114.589C114.328 223.438 113.806 217.046 113.024 211.827C112.371 206.609 111.328 201.195 109.893 195.586L98.7386 151.948C98.0863 149.469 97.7601 146.73 97.7601 143.729C97.7601 136.424 99.7822 131.075 103.826 127.683V127.292H56.4706V127.683C62.2107 130.814 66.6462 138.315 69.7772 150.187L92.4766 232.766C93.6508 237.071 94.2378 241.18 94.2378 245.094ZM174.814 263.153C184.976 260.93 191.054 246.554 191.054 236.343C191.054 227.006 188.819 221.998 186.864 217.617L186.863 217.615L186.862 217.613C186.495 216.789 186.137 215.988 185.806 215.184C185.806 222.957 181.256 226.013 180.027 226.013C180.027 216.745 175.576 208.442 169.198 202.23C162.821 196.019 162.223 190.704 162.223 187.914C162.223 185.961 162.516 184.805 162.966 183.033L162.966 183.032C163.158 182.274 163.379 181.403 163.618 180.308C150.757 187.359 150.76 193.287 150.764 201.781L150.764 202.23C150.764 209.598 147.598 214.934 145.969 217.679L145.969 217.68C145.666 218.189 145.417 218.61 145.25 218.938C142.593 212.72 137.5 210.7 135.285 210.468C135.928 211.132 137.212 213.005 137.212 215.184C137.212 216.147 136.543 217.937 135.679 220.251C134.099 224.48 131.864 230.46 131.864 236.343C131.864 253.645 143.657 261.186 150.549 263.153H151.038C147.605 260.447 143.49 254.9 143.49 248.931C143.49 243.827 145.121 240.01 145.974 238.016C146.275 237.311 146.479 236.834 146.479 236.608C146.479 236.535 146.48 236.461 146.481 236.388V236.387C146.488 235.602 146.496 234.805 145.615 233.287C148.771 233.818 150.232 235.712 151.561 238.003C154.65 235.479 154.683 233.287 154.683 225.68C154.683 219.595 159.998 215.97 162.655 214.919C162.423 215.472 161.957 217.264 161.957 220.001C161.957 223.422 163.884 226.378 167.97 230.397C172.055 234.416 172.786 240.428 172.786 242.886C174.878 240.594 175.941 238.535 175.941 235.645C177.868 238.635 179.163 245.078 179.163 249.529C179.163 256.478 175.86 260.744 171.518 263.153H174.814Z" fill="white"/>
<path d="M179.765 43.8587L164.193 48.0514L160 63.6234L155.807 48.0514L140.235 43.8587L155.807 39.666L160 24.094L164.193 39.666L179.765 43.8587Z" fill="white"/>
<path d="M140.235 80.5648L124.663 84.7575L120.471 100.329L116.278 84.7575L100.706 80.5648L116.278 76.372L120.471 60.8L124.663 76.372L140.235 80.5648Z" fill="white"/>
<path d="M219.294 80.5648L203.722 84.7575L199.529 100.329L195.337 84.7575L179.765 80.5648L195.337 76.372L199.529 60.8L203.722 76.372L219.294 80.5648Z" fill="white"/>
<defs>
<radialGradient id="paint0_radial_247_8449" cx="0" cy="0" r="1" gradientUnits="userSpaceOnUse" gradientTransform="translate(160 262.024) rotate(-90) scale(262.024)">
<stop stop-color="#FF3D00"/>
<stop offset="1" stop-color="#FFA800"/>
</radialGradient>
</defs>
</svg>
