<svg width="25" height="29" viewBox="0 0 25 29" fill="none" xmlns="http://www.w3.org/2000/svg">
<path fill-rule="evenodd" clip-rule="evenodd" d="M1.00016 8.62988C-1.24416 9.3032 1.00016 14.6299 1.00016 14.6299C1.00016 14.6299 8.37542 7.19325 9.00016 10.6299C10 16.1299 6.00016 28.1299 6.00016 28.1299H12.5H12.5002H19C19 28.1299 15.0001 16.1299 16 10.6299C16.6247 7.19325 24 14.6299 24 14.6299C24 14.6299 26.2443 9.3032 24 8.62988C19.0162 7.13472 12.5418 0.671718 12.5002 0.630085V0.629883C12.5002 0.629883 12.5001 0.629917 12.5001 0.629984C12.5 0.629917 12.5 0.629883 12.5 0.629883V0.630085C12.4583 0.671718 5.98392 7.13472 1.00016 8.62988Z" fill="white"/>
</svg>
