<svg width="37" height="21" viewBox="0 0 37 21" fill="none" xmlns="http://www.w3.org/2000/svg">
<path fill-rule="evenodd" clip-rule="evenodd" d="M18.5 20.6299C27.8888 20.6299 34.5 15.6004 36.5 10.6299C34.5 5.65932 27.8888 0.629883 18.5 0.629883C9.11116 0.629883 2.5 5.65932 0.5 10.6299C2.5 15.6004 9.11116 20.6299 18.5 20.6299ZM18.5 17.6299C26.232 17.6299 33.5 13.4959 33.5 9.62988C33.5 5.76389 26.232 3.62988 18.5 3.62988C10.768 3.62988 3.5 5.76389 3.5 9.62988C3.5 13.4959 10.768 17.6299 18.5 17.6299ZM18.5 17.6299C14.634 17.6299 11.5 14.4959 11.5 10.6299C11.5 6.76389 14.634 3.62988 18.5 3.62988C22.366 3.62988 25.5 6.76389 25.5 10.6299C25.5 14.4959 22.366 17.6299 18.5 17.6299Z" fill="white"/>
</svg>
