<svg width="320" height="320" viewBox="0 0 320 320" fill="none" xmlns="http://www.w3.org/2000/svg">
<g filter="url(#filter0_d_422_28598)">
<path d="M55.4118 55.4118L160 12.09L264.588 55.4118L307.91 160L264.588 264.588L160 307.91L55.4118 264.588L12.09 160L55.4118 55.4118Z" fill="url(#paint0_radial_422_28598)" stroke="black" stroke-width="11.2528"/>
<path fill-rule="evenodd" clip-rule="evenodd" d="M96.7038 241.903C96.7038 248.935 94.6948 254.648 90.6767 259.043V259.285H57.6353V270.155L160 305.938L262.365 270.155V259.285H228.735V259.043C224.842 253.769 222.896 247.867 222.896 241.338C222.896 238.199 223.398 234.432 224.403 230.037L243.426 150.743C244.556 146.097 246.188 141.765 248.323 137.747C250.458 133.604 253.094 130.653 256.234 128.895V128.518H214.421L214.232 128.895C218.125 132.411 220.071 137.433 220.071 143.963C220.071 146.599 219.694 149.362 218.941 152.25L209.712 189.919C206.698 202.852 204.752 215.66 203.873 228.342H203.12C201.613 221.185 199.792 214.593 197.658 208.566C195.649 202.538 192.51 195.256 188.24 186.717L169.971 150.931C167.585 146.286 165.764 142.267 164.509 138.877C163.253 135.361 161.997 131.532 160.742 127.388H159.612C157.854 133.917 154.777 141.828 150.383 151.12L130.23 192.368C124.328 204.422 119.933 216.413 117.045 228.342H116.292C116.041 221.059 115.538 214.907 114.785 209.884C114.157 204.861 113.153 199.65 111.772 194.251L101.036 152.25C100.408 149.864 100.094 147.227 100.094 144.339C100.094 137.308 102.04 132.16 105.933 128.895V128.518H60.3529V128.895C65.8777 131.908 70.1469 139.128 73.1604 150.555L95.0087 230.037C96.1388 234.181 96.7038 238.136 96.7038 241.903ZM174.258 259.285C184.039 257.145 189.89 243.308 189.89 233.48C189.89 224.493 187.739 219.673 185.856 215.456C185.502 214.662 185.157 213.89 184.838 213.115C184.838 220.596 180.459 223.537 179.276 223.537C179.276 214.617 174.992 206.625 168.853 200.647C162.715 194.668 162.14 189.553 162.14 186.868C162.14 184.987 162.422 183.875 162.855 182.169C163.04 181.439 163.252 180.601 163.482 179.546C151.104 186.333 151.106 192.039 151.11 200.214L151.11 200.647C151.11 207.738 148.063 212.874 146.495 215.516C146.203 216.007 145.963 216.412 145.803 216.728C143.245 210.743 138.343 208.799 136.212 208.575C136.83 209.215 138.066 211.018 138.066 213.115C138.066 214.042 137.423 215.764 136.591 217.991L136.591 217.991C135.07 222.062 132.919 227.818 132.919 233.48C132.919 250.133 144.269 257.392 150.903 259.285H151.374C148.07 256.681 144.109 251.341 144.109 245.597C144.109 240.684 145.679 237.01 146.5 235.091L146.5 235.091C146.79 234.412 146.986 233.953 146.986 233.736C146.986 233.665 146.987 233.594 146.987 233.523C146.995 232.767 147.002 232 146.155 230.539C149.192 231.05 150.599 232.872 151.877 235.078C154.851 232.649 154.883 230.539 154.883 223.218C154.883 217.361 159.998 213.872 162.555 212.859C162.332 213.392 161.884 215.116 161.884 217.751C161.884 221.044 163.738 223.889 167.67 227.757C171.603 231.626 172.306 237.412 172.306 239.778C174.32 237.572 175.343 235.59 175.343 232.809C177.198 235.686 178.444 241.888 178.444 246.172C178.444 252.86 175.265 256.966 171.087 259.285H174.258Z" fill="black"/>
<path d="M179.024 48.214L164.036 52.2495L160 67.2375L155.965 52.2495L140.977 48.214L155.965 44.1785L160 29.1904L164.036 44.1785L179.024 48.214Z" fill="black"/>
<path d="M140.976 83.5434L125.988 87.5789L121.953 102.567L117.917 87.5789L102.929 83.5434L117.917 79.5079L121.953 64.5199L125.988 79.5079L140.976 83.5434Z" fill="black"/>
<path d="M217.071 83.5434L202.083 87.5789L198.047 102.567L194.012 87.5789L179.024 83.5434L194.012 79.5079L198.047 64.5199L202.083 79.5079L217.071 83.5434Z" fill="black"/>
</g>
<defs>
<filter id="filter0_d_422_28598" x="2" y="2" width="316" height="316" filterUnits="userSpaceOnUse" color-interpolation-filters="sRGB">
<feFlood flood-opacity="0" result="BackgroundImageFix"/>
<feColorMatrix in="SourceAlpha" type="matrix" values="0 0 0 0 0 0 0 0 0 0 0 0 0 0 0 0 0 0 127 0" result="hardAlpha"/>
<feOffset/>
<feGaussianBlur stdDeviation="2"/>
<feComposite in2="hardAlpha" operator="out"/>
<feColorMatrix type="matrix" values="0 0 0 0 1 0 0 0 0 1 0 0 0 0 1 0 0 0 0.25 0"/>
<feBlend mode="normal" in2="BackgroundImageFix" result="effect1_dropShadow_422_28598"/>
<feBlend mode="normal" in="SourceGraphic" in2="effect1_dropShadow_422_28598" result="shape"/>
</filter>
<radialGradient id="paint0_radial_422_28598" cx="0" cy="0" r="1" gradientUnits="userSpaceOnUse" gradientTransform="translate(160 258.198) rotate(-90) scale(252.198)">
<stop stop-color="#FF3D00"/>
<stop offset="1" stop-color="#FFA800"/>
</radialGradient>
</defs>
</svg>
