<svg width="24" height="24" viewBox="0 0 24 24" fill="none" xmlns="http://www.w3.org/2000/svg">
<path d="M3.83769 3.83769L12 0.456747L20.1623 3.83769L23.5433 12L20.1623 20.1623L12 23.5433L3.83769 20.1623L0.456747 12L3.83769 3.83769Z" stroke="white" stroke-width="0.843958"/>
<path fill-rule="evenodd" clip-rule="evenodd" d="M7.06784 18.382C7.06784 18.9299 6.91129 19.3751 6.59819 19.7175V19.7364H4.02353V20.5834L12 23.3717L19.9765 20.5834V19.7364H17.356V19.7175C17.0527 19.3066 16.901 18.8467 16.901 18.338C16.901 18.0933 16.9401 17.7998 17.0184 17.4574L18.5007 11.2786C18.5888 10.9166 18.716 10.579 18.8823 10.2659C19.0487 9.94306 19.2541 9.71313 19.4987 9.57615V9.5468H16.2406L16.2259 9.57615C16.5292 9.85011 16.6809 10.2415 16.6809 10.7503C16.6809 10.9557 16.6515 11.171 16.5928 11.396L15.8737 14.3313C15.6388 15.3391 15.4872 16.3371 15.4187 17.3253H15.36C15.2426 16.7676 15.1007 16.2539 14.9344 15.7843C14.7778 15.3146 14.5332 14.7471 14.2006 14.0818L12.7769 11.2933C12.591 10.9313 12.4492 10.6182 12.3513 10.354C12.2535 10.08 12.1556 9.78162 12.0578 9.45874H11.9697C11.8328 9.96752 11.5931 10.5839 11.2506 11.308L9.68023 14.5221C9.22037 15.4614 8.87792 16.3958 8.65289 17.3253H8.59418C8.57461 16.7578 8.53547 16.2784 8.47677 15.887C8.42785 15.4956 8.34957 15.0896 8.24195 14.6689L7.40539 11.396C7.35647 11.2101 7.33201 11.0047 7.33201 10.7796C7.33201 10.2317 7.48367 9.83054 7.78698 9.57615V9.5468H4.2353V9.57615C4.6658 9.81097 4.99847 10.3736 5.23329 11.2639L6.93575 17.4574C7.02381 17.7802 7.06784 18.0885 7.06784 18.382ZM13.1115 19.7364C13.8734 19.5693 14.3291 18.4914 14.3291 17.7257C14.3291 17.0254 14.1615 16.6499 14.0148 16.3212C13.9872 16.2594 13.9603 16.1992 13.9355 16.1388C13.9355 16.7217 13.5942 16.9509 13.502 16.9509C13.502 16.2559 13.1682 15.6331 12.6899 15.1673C12.2116 14.7014 12.1668 14.3028 12.1668 14.0936C12.1668 13.947 12.1887 13.8604 12.2225 13.7275L12.2225 13.7274C12.2369 13.6706 12.2535 13.6052 12.2714 13.5231C11.3068 14.0519 11.307 14.4965 11.3073 15.1335L11.3073 15.1673C11.3073 15.7198 11.0699 16.12 10.9477 16.3259C10.925 16.3642 10.9062 16.3957 10.8938 16.4203C10.6945 15.954 10.3125 15.8025 10.1464 15.7851C10.1946 15.8349 10.2909 15.9754 10.2909 16.1388C10.2909 16.211 10.2408 16.3453 10.1759 16.5188L10.1759 16.5188C10.0574 16.836 9.88983 17.2845 9.88983 17.7257C9.88983 19.0231 10.7739 19.5887 11.2908 19.7364H11.3279C11.0704 19.5335 10.7617 19.1174 10.7617 18.6697C10.7617 18.2869 10.8841 18.0006 10.948 17.8511C10.9706 17.7982 10.9859 17.7624 10.9859 17.7455L10.986 17.7289C10.9866 17.67 10.9872 17.6103 10.9212 17.4964C11.1578 17.5362 11.2674 17.6782 11.3671 17.8501C11.5988 17.6608 11.6012 17.4964 11.6012 16.9259C11.6012 16.4695 11.9998 16.1976 12.1991 16.1188C12.1817 16.1603 12.1468 16.2946 12.1468 16.4999C12.1468 16.7565 12.2913 16.9782 12.5977 17.2796C12.9041 17.5811 12.9589 18.032 12.9589 18.2163C13.1159 18.0444 13.1956 17.89 13.1956 17.6732C13.3401 17.8975 13.4372 18.3807 13.4372 18.7146C13.4372 19.2357 13.1894 19.5557 12.8638 19.7364H13.1115Z" fill="white"/>
<path d="M13.4824 3.28948L12.3145 3.60394L12 4.77183L11.6856 3.60394L10.5177 3.28948L11.6856 2.97503L12 1.80713L12.3145 2.97503L13.4824 3.28948Z" fill="white"/>
<path d="M10.5176 6.04241L9.34974 6.35687L9.03529 7.52476L8.72083 6.35687L7.55293 6.04241L8.72083 5.72796L9.03529 4.56006L9.34974 5.72796L10.5176 6.04241Z" fill="white"/>
<path d="M16.4471 6.04241L15.2792 6.35687L14.9647 7.52476L14.6502 6.35687L13.4823 6.04241L14.6502 5.72796L14.9647 4.56006L15.2792 5.72796L16.4471 6.04241Z" fill="white"/>
</svg>
