<svg width="745" height="1040" viewBox="0 0 745 1040" fill="none" xmlns="http://www.w3.org/2000/svg">
<g clip-path="url(#clip0_453_29518)">
<rect width="744.094" height="1039.37" rx="20" fill="#651200"/>
<path fill-rule="evenodd" clip-rule="evenodd" d="M-1.69873 -22L41.6025 3V53L-1.69873 78L-45 53V3L-1.69873 -22ZM48.3013 60L91.6025 85V135L48.3013 160L5 135V85L48.3013 60ZM141.603 3L98.3013 -22L55 3V53L98.3013 78L141.603 53V3ZM148.301 60L191.603 85V135L148.301 160L105 135V85L148.301 60ZM241.603 3L198.301 -22L155 3V53L198.301 78L241.603 53V3ZM248.301 60L291.603 85V135L248.301 160L205 135V85L248.301 60ZM341.603 3L298.301 -22L255 3V53L298.301 78L341.603 53V3ZM348.301 60L391.603 85V135L348.301 160L305 135V85L348.301 60ZM441.603 3L398.301 -22L355 3V53L398.301 78L441.603 53V3ZM448.301 60L491.603 85V135L448.301 160L405 135V85L448.301 60ZM541.603 3L498.301 -22L455 3V53L498.301 78L541.603 53V3ZM548.301 60L591.603 85V135L548.301 160L505 135V85L548.301 60ZM641.603 3L598.301 -22L555 3V53L598.301 78L641.603 53V3ZM648.301 60L691.603 85V135L648.301 160L605 135V85L648.301 60ZM741.603 3L698.301 -22L655 3V53L698.301 78L741.603 53V3ZM748.301 60L791.603 85V135L748.301 160L705 135V85L748.301 60ZM-1.69873 142L41.6025 167V217L-1.69873 242L-45 217V167L-1.69873 142ZM48.3013 224L91.6025 249V299L48.3013 324L5 299V249L48.3013 224ZM141.603 167L98.3013 142L55 167V217L98.3013 242L141.603 217V167ZM148.301 224L191.603 249V299L148.301 324L105 299V249L148.301 224ZM241.603 167L198.301 142L155 167V217L198.301 242L241.603 217V167ZM248.301 224L291.603 249V299L248.301 324L205 299V249L248.301 224ZM341.603 167L298.301 142L255 167V217L298.301 242L341.603 217V167ZM348.301 224L391.603 249V299L348.301 324L305 299V249L348.301 224ZM441.603 167L398.301 142L355 167V217L398.301 242L441.603 217V167ZM448.301 224L491.603 249V299L448.301 324L405 299V249L448.301 224ZM541.603 167L498.301 142L455 167V217L498.301 242L541.603 217V167ZM548.301 224L591.603 249V299L548.301 324L505 299V249L548.301 224ZM641.603 167L598.301 142L555 167V217L598.301 242L641.603 217V167ZM648.301 224L691.603 249V299L648.301 324L605 299V249L648.301 224ZM741.603 167L698.301 142L655 167V217L698.301 242L741.603 217V167ZM748.301 224L791.603 249V299L748.301 324L705 299V249L748.301 224ZM-1.69873 305L41.6025 330V380L-1.69873 405L-45 380V330L-1.69873 305ZM48.3013 387L91.6025 412V462L48.3013 487L5 462V412L48.3013 387ZM141.603 330L98.3013 305L55 330V380L98.3013 405L141.603 380V330ZM148.301 387L191.603 412V462L148.301 487L105 462V412L148.301 387ZM241.603 330L198.301 305L155 330V380L198.301 405L241.603 380V330ZM248.301 387L291.603 412V462L248.301 487L205 462V412L248.301 387ZM341.603 330L298.301 305L255 330V380L298.301 405L341.603 380V330ZM348.301 387L391.603 412V462L348.301 487L305 462V412L348.301 387ZM441.603 330L398.301 305L355 330V380L398.301 405L441.603 380V330ZM448.301 387L491.603 412V462L448.301 487L405 462V412L448.301 387ZM541.603 330L498.301 305L455 330V380L498.301 405L541.603 380V330ZM548.301 387L591.603 412V462L548.301 487L505 462V412L548.301 387ZM641.603 330L598.301 305L555 330V380L598.301 405L641.603 380V330ZM648.301 387L691.603 412V462L648.301 487L605 462V412L648.301 387ZM741.603 330L698.301 305L655 330V380L698.301 405L741.603 380V330ZM748.301 387L791.603 412V462L748.301 487L705 462V412L748.301 387ZM-1.69873 469L41.6025 494V544L-1.69873 569L-45 544V494L-1.69873 469ZM48.3013 551L91.6025 576V626L48.3013 651L5 626V576L48.3013 551ZM141.603 494L98.3013 469L55 494V544L98.3013 569L141.603 544V494ZM148.301 551L191.603 576V626L148.301 651L105 626V576L148.301 551ZM241.603 494L198.301 469L155 494V544L198.301 569L241.603 544V494ZM248.301 551L291.603 576V626L248.301 651L205 626V576L248.301 551ZM341.603 494L298.301 469L255 494V544L298.301 569L341.603 544V494ZM348.301 551L391.603 576V626L348.301 651L305 626V576L348.301 551ZM441.603 494L398.301 469L355 494V544L398.301 569L441.603 544V494ZM448.301 551L491.603 576V626L448.301 651L405 626V576L448.301 551ZM541.603 494L498.301 469L455 494V544L498.301 569L541.603 544V494ZM548.301 551L591.603 576V626L548.301 651L505 626V576L548.301 551ZM641.603 494L598.301 469L555 494V544L598.301 569L641.603 544V494ZM648.301 551L691.603 576V626L648.301 651L605 626V576L648.301 551ZM741.603 494L698.301 469L655 494V544L698.301 569L741.603 544V494ZM748.301 551L791.603 576V626L748.301 651L705 626V576L748.301 551ZM41.6025 659L-1.69873 634L-45 659V709L-1.69873 734L41.6025 709V659ZM91.6025 741L48.3013 716L5 741V791L48.3013 816L91.6025 791V741ZM98.3013 634L141.603 659V709L98.3013 734L55 709V659L98.3013 634ZM191.603 741L148.301 716L105 741V791L148.301 816L191.603 791V741ZM198.301 634L241.603 659V709L198.301 734L155 709V659L198.301 634ZM291.603 741L248.301 716L205 741V791L248.301 816L291.603 791V741ZM298.301 634L341.603 659V709L298.301 734L255 709V659L298.301 634ZM391.603 741L348.301 716L305 741V791L348.301 816L391.603 791V741ZM398.301 634L441.603 659V709L398.301 734L355 709V659L398.301 634ZM491.603 741L448.301 716L405 741V791L448.301 816L491.603 791V741ZM498.301 634L541.603 659V709L498.301 734L455 709V659L498.301 634ZM591.603 741L548.301 716L505 741V791L548.301 816L591.603 791V741ZM598.301 634L641.603 659V709L598.301 734L555 709V659L598.301 634ZM691.603 741L648.301 716L605 741V791L648.301 816L691.603 791V741ZM698.301 634L741.603 659V709L698.301 734L655 709V659L698.301 634ZM791.603 741L748.301 716L705 741V791L748.301 816L791.603 791V741ZM41.6025 823L-1.69873 798L-45 823V873L-1.69873 898L41.6025 873V823ZM41.6025 987L-1.69873 962L-45 987V1037L-1.69873 1062L41.6025 1037V987ZM48.3013 880L91.6025 905V955L48.3013 980L5 955V905L48.3013 880ZM141.603 823L98.3013 798L55 823V873L98.3013 898L141.603 873V823ZM98.3013 962L141.603 987V1037L98.3013 1062L55 1037V987L98.3013 962ZM191.603 905L148.301 880L105 905V955L148.301 980L191.603 955V905ZM198.301 798L241.603 823V873L198.301 898L155 873V823L198.301 798ZM241.603 987L198.301 962L155 987V1037L198.301 1062L241.603 1037V987ZM248.301 880L291.603 905V955L248.301 980L205 955V905L248.301 880ZM341.603 823L298.301 798L255 823V873L298.301 898L341.603 873V823ZM298.301 962L341.603 987V1037L298.301 1062L255 1037V987L298.301 962ZM391.603 905L348.301 880L305 905V955L348.301 980L391.603 955V905ZM398.301 798L441.603 823V873L398.301 898L355 873V823L398.301 798ZM441.603 987L398.301 962L355 987V1037L398.301 1062L441.603 1037V987ZM448.301 880L491.603 905V955L448.301 980L405 955V905L448.301 880ZM541.603 823L498.301 798L455 823V873L498.301 898L541.603 873V823ZM498.301 962L541.603 987V1037L498.301 1062L455 1037V987L498.301 962ZM591.603 905L548.301 880L505 905V955L548.301 980L591.603 955V905ZM598.301 798L641.603 823V873L598.301 898L555 873V823L598.301 798ZM641.603 987L598.301 962L555 987V1037L598.301 1062L641.603 1037V987ZM648.301 880L691.603 905V955L648.301 980L605 955V905L648.301 880ZM741.603 823L698.301 798L655 823V873L698.301 898L741.603 873V823ZM698.301 962L741.603 987V1037L698.301 1062L655 1037V987L698.301 962ZM791.603 905L748.301 880L705 905V955L748.301 980L791.603 955V905Z" fill="#721400"/>
<path d="M142.967 630.98C133.639 630.98 125.455 628.956 118.415 624.908C111.375 620.772 105.963 615.14 102.179 608.012C98.3949 600.796 96.5029 592.7 96.5029 583.724C96.5029 573.956 98.5269 565.42 102.575 558.116C106.711 550.812 112.519 545.224 119.999 541.352C127.479 537.392 136.191 535.412 146.135 535.412C154.143 535.412 161.887 536.512 169.367 538.712L171.479 561.548L171.215 561.68C168.575 557.632 165.011 554.552 160.523 552.44C156.123 550.328 151.283 549.272 146.003 549.272C136.763 549.272 129.459 552.264 124.091 558.248C118.811 564.144 116.171 572.196 116.171 582.404C116.171 592.788 118.591 601.148 123.431 607.484C128.359 613.82 135.311 616.988 144.287 616.988C151.063 616.988 156.783 615.756 161.447 613.292C166.111 610.74 170.291 607.044 173.987 602.204L174.251 602.336L171.083 625.964C161.579 629.308 152.207 630.98 142.967 630.98Z" fill="white"/>
<path d="M228.831 631.64C219.239 631.64 210.879 629.572 203.751 625.436C196.623 621.3 191.167 615.624 187.383 608.408C183.687 601.192 181.839 593.052 181.839 583.988C181.839 574.132 183.775 565.508 187.647 558.116C191.607 550.636 197.283 544.872 204.675 540.824C212.067 536.688 220.779 534.62 230.811 534.62C240.139 534.62 248.367 536.6 255.495 540.56C262.623 544.52 268.123 550.108 271.995 557.324C275.955 564.54 277.935 572.812 277.935 582.14C277.935 591.82 275.867 600.444 271.731 608.012C267.683 615.492 261.919 621.3 254.439 625.436C247.047 629.572 238.511 631.64 228.831 631.64ZM230.151 617.912C235.519 617.912 240.315 616.504 244.539 613.688C248.851 610.872 252.195 606.868 254.571 601.676C257.035 596.396 258.267 590.324 258.267 583.46C258.267 572.372 255.715 563.748 250.611 557.588C245.507 551.428 238.467 548.348 229.491 548.348C223.771 548.348 218.799 549.8 214.575 552.704C210.351 555.52 207.095 559.524 204.807 564.716C202.607 569.82 201.507 575.804 201.507 582.668C201.507 593.668 203.971 602.292 208.899 608.54C213.827 614.788 220.911 617.912 230.151 617.912Z" fill="white"/>
<path d="M287.376 628.736C289.664 626.184 291.468 623.456 292.788 620.552C294.108 617.56 294.944 613.908 295.296 609.596L298.728 558.38L298.86 555.872C298.86 552 298.244 548.348 297.012 544.916C295.868 541.484 294.064 539.02 291.6 537.524L291.732 537.26H321.96C321.344 537.964 321.036 539.02 321.036 540.428C321.036 542.804 322.048 545.752 324.072 549.272L337.14 571.712C341.54 579.28 344.268 586.54 345.324 593.492H345.852C346.732 589.884 347.876 586.584 349.284 583.592C350.78 580.512 352.892 576.552 355.62 571.712L368.556 548.876C370.492 545.356 371.46 542.496 371.46 540.296C371.46 538.976 371.152 537.964 370.536 537.26H401.028L401.16 537.524C398.432 539.02 396.408 541.88 395.088 546.104C393.768 550.24 393.24 554.332 393.504 558.38L397.596 609.596C397.86 613.028 398.652 616.548 399.972 620.156C401.38 623.676 403.184 626.536 405.384 628.736L405.252 629H375.024L374.892 628.736C376.124 627.68 377.18 625.92 378.06 623.456C378.94 620.992 379.38 618.176 379.38 615.008C379.38 613.864 379.336 612.984 379.248 612.368L377.136 585.044C376.96 582.052 376.872 579.676 376.872 577.916C376.872 573.076 377.224 567.884 377.928 562.34H377.4C376.08 566.564 374.628 570.392 373.044 573.824C371.46 577.168 369.524 580.82 367.236 584.78L352.584 609.596C348.888 615.756 346.82 621.08 346.38 625.568H345.324C344.708 620.992 342.508 615.712 338.724 609.728L323.016 584.648C320.816 581.128 318.968 577.652 317.472 574.22C316.064 570.788 314.744 566.828 313.512 562.34H312.984C313.6 568.5 313.908 574 313.908 578.84C313.908 581.744 313.864 583.812 313.776 585.044L312.324 612.368C312.148 616.24 312.456 619.628 313.248 622.532C314.128 625.436 315.272 627.504 316.68 628.736L316.548 629H287.508L287.376 628.736Z" fill="white"/>
<path d="M468.217 580.16C471.825 580.6 475.125 581.876 478.117 583.988C481.197 586.1 483.617 588.74 485.377 591.908C487.225 595.076 488.149 598.42 488.149 601.94C488.149 610.388 485.289 617.032 479.569 621.872C473.849 626.624 466.413 629 457.261 629H417.133V628.736C419.245 627.152 421.049 624.732 422.545 621.476C424.129 618.132 424.921 613.776 424.921 608.408V557.72C424.921 552.616 424.173 548.392 422.677 545.048C421.269 541.616 419.421 539.108 417.133 537.524V537.26H453.565C463.509 537.26 470.945 539.152 475.873 542.936C480.889 546.72 483.397 552.528 483.397 560.36C483.397 563.616 482.649 566.652 481.153 569.468C479.745 572.284 477.853 574.616 475.477 576.464C473.189 578.224 470.769 579.324 468.217 579.764V580.16ZM443.005 550.196V573.956H452.509C456.381 573.956 459.373 572.9 461.485 570.788C463.685 568.588 464.785 565.42 464.785 561.284C464.785 557.588 463.729 554.816 461.617 552.968C459.505 551.12 456.469 550.196 452.509 550.196H443.005ZM454.621 616.064C459.461 616.064 463.113 614.744 465.577 612.104C468.041 609.376 469.273 605.768 469.273 601.28C469.273 596.792 468.041 593.272 465.577 590.72C463.113 588.08 459.461 586.76 454.621 586.76H443.005V616.064H454.621Z" fill="white"/>
<path d="M571.812 607.352C573.484 612.104 575.552 616.46 578.016 620.42C580.48 624.292 582.724 627.064 584.748 628.736V629H554.916V628.736C556.324 627.68 557.028 625.656 557.028 622.664C557.028 619.848 556.324 616.46 554.916 612.5L553.728 609.332H519.672L518.484 612.5C517.076 616.108 516.372 619.452 516.372 622.532C516.372 625.612 516.988 627.68 518.22 628.736V629H490.5V628.736C492.524 626.976 494.724 624.16 497.1 620.288C499.564 616.416 501.632 612.104 503.304 607.352L522.18 552.968C522.972 550.592 523.368 548.436 523.368 546.5C523.368 544.476 523.016 542.672 522.312 541.088C521.608 539.504 520.772 538.316 519.804 537.524V537.26H554.784V537.524C553.816 538.404 552.98 539.636 552.276 541.22C551.572 542.716 551.22 544.476 551.22 546.5C551.22 548.436 551.616 550.592 552.408 552.968L571.812 607.352ZM536.304 554.816C535.776 559.304 534.94 563.572 533.796 567.62C532.652 571.58 531.024 576.508 528.912 582.404L524.028 596.396H549.372L544.488 582.404C542.288 576.068 540.616 571.008 539.472 567.224C538.328 563.44 537.448 559.304 536.832 554.816H536.304Z" fill="white"/>
<path d="M652.691 560.36L652.427 560.492C650.843 557.676 648.511 555.344 645.431 553.496C642.439 551.648 639.051 550.724 635.267 550.724H625.367V608.144C625.367 613.512 626.115 618 627.611 621.608C629.195 625.128 631.131 627.504 633.419 628.736V629H599.231V628.736C601.343 627.504 603.191 625.084 604.775 621.476C606.447 617.78 607.283 613.336 607.283 608.144V550.724H597.251C593.467 550.724 590.035 551.648 586.955 553.496C583.963 555.344 581.675 557.676 580.091 560.492L579.827 560.36L582.071 536.204C587.439 536.908 593.467 537.26 600.155 537.26H632.363C639.051 537.26 645.079 536.908 650.447 536.204L652.691 560.36Z" fill="white"/>
<path d="M243.449 736.98C234.121 736.98 225.937 734.956 218.897 730.908C211.857 726.772 206.445 721.14 202.661 714.012C198.877 706.796 196.985 698.7 196.985 689.724C196.985 679.956 199.009 671.42 203.057 664.116C207.193 656.812 213.001 651.224 220.481 647.352C227.961 643.392 236.673 641.412 246.617 641.412C254.625 641.412 262.369 642.512 269.849 644.712L271.961 667.548L271.697 667.68C269.057 663.632 265.493 660.552 261.005 658.44C256.605 656.328 251.765 655.272 246.485 655.272C237.245 655.272 229.941 658.264 224.573 664.248C219.293 670.144 216.653 678.196 216.653 688.404C216.653 698.788 219.073 707.148 223.913 713.484C228.841 719.82 235.793 722.988 244.769 722.988C251.545 722.988 257.265 721.756 261.929 719.292C266.593 716.74 270.773 713.044 274.469 708.204L274.733 708.336L271.565 731.964C262.061 735.308 252.689 736.98 243.449 736.98Z" fill="white"/>
<path d="M359.181 713.352C360.853 718.104 362.921 722.46 365.385 726.42C367.849 730.292 370.093 733.064 372.117 734.736V735H342.285V734.736C343.693 733.68 344.397 731.656 344.397 728.664C344.397 725.848 343.693 722.46 342.285 718.5L341.097 715.332H307.041L305.853 718.5C304.445 722.108 303.741 725.452 303.741 728.532C303.741 731.612 304.357 733.68 305.589 734.736V735H277.869V734.736C279.893 732.976 282.093 730.16 284.469 726.288C286.933 722.416 289.001 718.104 290.673 713.352L309.549 658.968C310.341 656.592 310.737 654.436 310.737 652.5C310.737 650.476 310.385 648.672 309.681 647.088C308.977 645.504 308.141 644.316 307.173 643.524V643.26H342.153V643.524C341.185 644.404 340.349 645.636 339.645 647.22C338.941 648.716 338.589 650.476 338.589 652.5C338.589 654.436 338.985 656.592 339.777 658.968L359.181 713.352ZM323.673 660.816C323.145 665.304 322.309 669.572 321.165 673.62C320.021 677.58 318.393 682.508 316.281 688.404L311.397 702.396H336.741L331.857 688.404C329.657 682.068 327.985 677.008 326.841 673.224C325.697 669.44 324.817 665.304 324.201 660.816H323.673Z" fill="white"/>
<path d="M442.708 717.18C447.812 725.364 453.532 730.512 459.868 732.624V732.888L432.809 737.772C431.137 732.756 428.893 727.872 426.077 723.12L405.616 688.14H411.952C417.76 688.14 422.16 686.864 425.152 684.312C428.144 681.672 429.641 677.492 429.641 671.772C429.641 666.932 428.101 663.104 425.021 660.288C421.941 657.472 417.584 656.108 411.952 656.196L402.712 656.328V715.728C402.712 720.48 403.373 724.528 404.693 727.872C406.013 731.128 407.552 733.416 409.312 734.736V735H377.5V734.736C379.436 733.504 381.108 731.216 382.516 727.872C383.924 724.44 384.629 720.216 384.629 715.2V662.532C384.629 657.692 383.924 653.644 382.516 650.388C381.108 647.044 379.436 644.756 377.5 643.524V643.26H414.988C425.46 643.26 433.644 645.768 439.54 650.784C445.436 655.712 448.384 662.488 448.384 671.112C448.384 677.976 446.801 683.608 443.633 688.008C440.553 692.32 436.152 695.4 430.432 697.248L442.708 717.18Z" fill="white"/>
<path d="M464.77 734.736C466.706 733.416 468.378 731.084 469.786 727.74C471.194 724.396 471.898 720.216 471.898 715.2V663.06C471.898 658.484 471.15 654.392 469.654 650.784C468.246 647.176 466.618 644.756 464.77 643.524V643.26H503.05C512.29 643.26 520.342 645.108 527.206 648.804C534.158 652.412 539.526 657.648 543.31 664.512C547.094 671.376 548.986 679.56 548.986 689.064C548.986 703.76 544.982 715.112 536.974 723.12C528.966 731.04 516.954 735 500.938 735H464.77V734.736ZM502.258 721.932C511.058 721.932 517.79 719.116 522.454 713.484C527.118 707.852 529.45 699.712 529.45 689.064C529.45 677.888 527.162 669.66 522.586 664.38C518.01 659.012 511.014 656.328 501.598 656.328H489.982V721.932H502.258Z" fill="white"/>
<path d="M312.823 319.823L372 295.311L431.177 319.823L455.689 379L431.177 438.177L372 462.689L312.823 438.177L288.311 379L312.823 319.823Z" fill="#721400" stroke="white" stroke-width="6.1187"/>
<path fill-rule="evenodd" clip-rule="evenodd" d="M336.242 425.27C336.242 429.242 335.107 432.47 332.837 434.953V435.089H314.171V441.23L372 461.445L429.83 441.23V435.089H410.831V434.953C408.632 431.973 407.533 428.639 407.533 424.951C407.533 423.177 407.817 421.049 408.384 418.566L419.131 373.77C419.769 371.146 420.691 368.699 421.897 366.429C423.103 364.088 424.593 362.421 426.366 361.428V361.215H402.745L402.638 361.428C404.837 363.414 405.937 366.251 405.937 369.94C405.937 371.43 405.724 372.99 405.298 374.622L400.084 395.902C398.382 403.209 397.283 410.444 396.786 417.609H396.36C395.509 413.565 394.481 409.841 393.275 406.436C392.14 403.032 390.366 398.917 387.954 394.094L377.633 373.877C376.286 371.252 375.257 368.982 374.548 367.067C373.838 365.081 373.129 362.917 372.42 360.576H371.781C370.788 364.265 369.05 368.734 366.567 373.983L355.182 397.286C351.848 404.096 349.365 410.87 347.734 417.609H347.308C347.166 413.495 346.883 410.019 346.457 407.181C346.102 404.344 345.535 401.4 344.755 398.35L338.69 374.622C338.335 373.274 338.157 371.784 338.157 370.153C338.157 366.18 339.257 363.272 341.456 361.428V361.215H315.706V361.428C318.827 363.13 321.239 367.209 322.942 373.664L335.285 418.566C335.923 420.907 336.242 423.142 336.242 425.27ZM380.056 435.089C385.581 433.88 388.886 426.063 388.886 420.511C388.886 415.434 387.671 412.711 386.608 410.329L386.607 410.328C386.407 409.88 386.213 409.444 386.032 409.006C386.032 413.233 383.558 414.894 382.89 414.894C382.89 409.855 380.47 405.34 377.002 401.963C373.534 398.585 373.209 395.695 373.209 394.178C373.209 393.116 373.369 392.488 373.613 391.524C373.718 391.112 373.838 390.638 373.968 390.042C366.974 393.876 366.976 397.1 366.978 401.718L366.978 401.963C366.978 405.969 365.257 408.87 364.371 410.363L364.371 410.363C364.206 410.641 364.07 410.869 363.98 411.047C362.535 407.666 359.766 406.568 358.562 406.442C358.911 406.803 359.609 407.822 359.609 409.006C359.609 409.53 359.246 410.503 358.776 411.761C357.916 414.061 356.701 417.312 356.701 420.511C356.701 429.919 363.113 434.019 366.861 435.089H367.127C365.26 433.618 363.023 430.602 363.023 427.356C363.023 424.581 363.91 422.505 364.374 421.421C364.537 421.038 364.648 420.778 364.648 420.656C364.648 420.615 364.649 420.576 364.649 420.536C364.653 420.108 364.658 419.675 364.179 418.85C365.895 419.139 366.689 420.168 367.412 421.414C369.091 420.042 369.109 418.85 369.109 414.714C369.109 411.405 371.999 409.434 373.444 408.862C373.318 409.163 373.065 410.137 373.065 411.625C373.065 413.485 374.112 415.093 376.334 417.278C378.555 419.464 378.953 422.733 378.953 424.069C380.09 422.823 380.668 421.703 380.668 420.132C381.716 421.757 382.42 425.261 382.42 427.681C382.42 431.46 380.624 433.78 378.264 435.089H380.056Z" fill="white"/>
<path d="M382.747 315.848L374.28 318.128L372 326.595L369.72 318.128L361.253 315.848L369.72 313.568L372 305.101L374.28 313.568L382.747 315.848Z" fill="white"/>
<path d="M361.253 335.807L352.786 338.087L350.506 346.554L348.226 338.087L339.759 335.807L348.226 333.527L350.506 325.06L352.786 333.527L361.253 335.807Z" fill="white"/>
<path d="M404.241 335.807L395.774 338.087L393.494 346.554L391.214 338.087L382.747 335.807L391.214 333.527L393.494 325.06L395.774 333.527L404.241 335.807Z" fill="white"/>
</g>
<defs>
<clipPath id="clip0_453_29518">
<rect width="744.094" height="1039.37" rx="20" fill="white"/>
</clipPath>
</defs>
</svg>
