<svg width="745" height="1040" viewBox="0 0 745 1040" fill="none" xmlns="http://www.w3.org/2000/svg">
<g clip-path="url(#clip0_265_9723)">
<rect width="744.094" height="1039.37" rx="20" fill="#651200"/>
<path fill-rule="evenodd" clip-rule="evenodd" d="M-1.69873 -22L41.6025 3V53L-1.69873 78L-45 53V3L-1.69873 -22ZM48.3013 60L91.6025 85V135L48.3013 160L5 135V85L48.3013 60ZM141.603 3L98.3013 -22L55 3V53L98.3013 78L141.603 53V3ZM148.301 60L191.603 85V135L148.301 160L105 135V85L148.301 60ZM241.603 3L198.301 -22L155 3V53L198.301 78L241.603 53V3ZM248.301 60L291.603 85V135L248.301 160L205 135V85L248.301 60ZM341.603 3L298.301 -22L255 3V53L298.301 78L341.603 53V3ZM348.301 60L391.603 85V135L348.301 160L305 135V85L348.301 60ZM441.603 3L398.301 -22L355 3V53L398.301 78L441.603 53V3ZM448.301 60L491.603 85V135L448.301 160L405 135V85L448.301 60ZM541.603 3L498.301 -22L455 3V53L498.301 78L541.603 53V3ZM548.301 60L591.603 85V135L548.301 160L505 135V85L548.301 60ZM641.603 3L598.301 -22L555 3V53L598.301 78L641.603 53V3ZM648.301 60L691.603 85V135L648.301 160L605 135V85L648.301 60ZM741.603 3L698.301 -22L655 3V53L698.301 78L741.603 53V3ZM748.301 60L791.603 85V135L748.301 160L705 135V85L748.301 60ZM-1.69873 142L41.6025 167V217L-1.69873 242L-45 217V167L-1.69873 142ZM48.3013 224L91.6025 249V299L48.3013 324L5 299V249L48.3013 224ZM141.603 167L98.3013 142L55 167V217L98.3013 242L141.603 217V167ZM148.301 224L191.603 249V299L148.301 324L105 299V249L148.301 224ZM241.603 167L198.301 142L155 167V217L198.301 242L241.603 217V167ZM248.301 224L291.603 249V299L248.301 324L205 299V249L248.301 224ZM341.603 167L298.301 142L255 167V217L298.301 242L341.603 217V167ZM348.301 224L391.603 249V299L348.301 324L305 299V249L348.301 224ZM441.603 167L398.301 142L355 167V217L398.301 242L441.603 217V167ZM448.301 224L491.603 249V299L448.301 324L405 299V249L448.301 224ZM541.603 167L498.301 142L455 167V217L498.301 242L541.603 217V167ZM548.301 224L591.603 249V299L548.301 324L505 299V249L548.301 224ZM641.603 167L598.301 142L555 167V217L598.301 242L641.603 217V167ZM648.301 224L691.603 249V299L648.301 324L605 299V249L648.301 224ZM741.603 167L698.301 142L655 167V217L698.301 242L741.603 217V167ZM748.301 224L791.603 249V299L748.301 324L705 299V249L748.301 224ZM-1.69873 305L41.6025 330V380L-1.69873 405L-45 380V330L-1.69873 305ZM48.3013 387L91.6025 412V462L48.3013 487L5 462V412L48.3013 387ZM141.603 330L98.3013 305L55 330V380L98.3013 405L141.603 380V330ZM148.301 387L191.603 412V462L148.301 487L105 462V412L148.301 387ZM241.603 330L198.301 305L155 330V380L198.301 405L241.603 380V330ZM248.301 387L291.603 412V462L248.301 487L205 462V412L248.301 387ZM341.603 330L298.301 305L255 330V380L298.301 405L341.603 380V330ZM348.301 387L391.603 412V462L348.301 487L305 462V412L348.301 387ZM441.603 330L398.301 305L355 330V380L398.301 405L441.603 380V330ZM448.301 387L491.603 412V462L448.301 487L405 462V412L448.301 387ZM541.603 330L498.301 305L455 330V380L498.301 405L541.603 380V330ZM548.301 387L591.603 412V462L548.301 487L505 462V412L548.301 387ZM641.603 330L598.301 305L555 330V380L598.301 405L641.603 380V330ZM648.301 387L691.603 412V462L648.301 487L605 462V412L648.301 387ZM741.603 330L698.301 305L655 330V380L698.301 405L741.603 380V330ZM748.301 387L791.603 412V462L748.301 487L705 462V412L748.301 387ZM-1.69873 469L41.6025 494V544L-1.69873 569L-45 544V494L-1.69873 469ZM48.3013 551L91.6025 576V626L48.3013 651L5 626V576L48.3013 551ZM141.603 494L98.3013 469L55 494V544L98.3013 569L141.603 544V494ZM148.301 551L191.603 576V626L148.301 651L105 626V576L148.301 551ZM241.603 494L198.301 469L155 494V544L198.301 569L241.603 544V494ZM248.301 551L291.603 576V626L248.301 651L205 626V576L248.301 551ZM341.603 494L298.301 469L255 494V544L298.301 569L341.603 544V494ZM348.301 551L391.603 576V626L348.301 651L305 626V576L348.301 551ZM441.603 494L398.301 469L355 494V544L398.301 569L441.603 544V494ZM448.301 551L491.603 576V626L448.301 651L405 626V576L448.301 551ZM541.603 494L498.301 469L455 494V544L498.301 569L541.603 544V494ZM548.301 551L591.603 576V626L548.301 651L505 626V576L548.301 551ZM641.603 494L598.301 469L555 494V544L598.301 569L641.603 544V494ZM648.301 551L691.603 576V626L648.301 651L605 626V576L648.301 551ZM741.603 494L698.301 469L655 494V544L698.301 569L741.603 544V494ZM748.301 551L791.603 576V626L748.301 651L705 626V576L748.301 551ZM41.6025 659L-1.69873 634L-45 659V709L-1.69873 734L41.6025 709V659ZM91.6025 741L48.3013 716L5 741V791L48.3013 816L91.6025 791V741ZM98.3013 634L141.603 659V709L98.3013 734L55 709V659L98.3013 634ZM191.603 741L148.301 716L105 741V791L148.301 816L191.603 791V741ZM198.301 634L241.603 659V709L198.301 734L155 709V659L198.301 634ZM291.603 741L248.301 716L205 741V791L248.301 816L291.603 791V741ZM298.301 634L341.603 659V709L298.301 734L255 709V659L298.301 634ZM391.603 741L348.301 716L305 741V791L348.301 816L391.603 791V741ZM398.301 634L441.603 659V709L398.301 734L355 709V659L398.301 634ZM491.603 741L448.301 716L405 741V791L448.301 816L491.603 791V741ZM498.301 634L541.603 659V709L498.301 734L455 709V659L498.301 634ZM591.603 741L548.301 716L505 741V791L548.301 816L591.603 791V741ZM598.301 634L641.603 659V709L598.301 734L555 709V659L598.301 634ZM691.603 741L648.301 716L605 741V791L648.301 816L691.603 791V741ZM698.301 634L741.603 659V709L698.301 734L655 709V659L698.301 634ZM791.603 741L748.301 716L705 741V791L748.301 816L791.603 791V741ZM41.6025 823L-1.69873 798L-45 823V873L-1.69873 898L41.6025 873V823ZM41.6025 987L-1.69873 962L-45 987V1037L-1.69873 1062L41.6025 1037V987ZM48.3013 880L91.6025 905V955L48.3013 980L5 955V905L48.3013 880ZM141.603 823L98.3013 798L55 823V873L98.3013 898L141.603 873V823ZM98.3013 962L141.603 987V1037L98.3013 1062L55 1037V987L98.3013 962ZM191.603 905L148.301 880L105 905V955L148.301 980L191.603 955V905ZM198.301 798L241.603 823V873L198.301 898L155 873V823L198.301 798ZM241.603 987L198.301 962L155 987V1037L198.301 1062L241.603 1037V987ZM248.301 880L291.603 905V955L248.301 980L205 955V905L248.301 880ZM341.603 823L298.301 798L255 823V873L298.301 898L341.603 873V823ZM298.301 962L341.603 987V1037L298.301 1062L255 1037V987L298.301 962ZM391.603 905L348.301 880L305 905V955L348.301 980L391.603 955V905ZM398.301 798L441.603 823V873L398.301 898L355 873V823L398.301 798ZM441.603 987L398.301 962L355 987V1037L398.301 1062L441.603 1037V987ZM448.301 880L491.603 905V955L448.301 980L405 955V905L448.301 880ZM541.603 823L498.301 798L455 823V873L498.301 898L541.603 873V823ZM498.301 962L541.603 987V1037L498.301 1062L455 1037V987L498.301 962ZM591.603 905L548.301 880L505 905V955L548.301 980L591.603 955V905ZM598.301 798L641.603 823V873L598.301 898L555 873V823L598.301 798ZM641.603 987L598.301 962L555 987V1037L598.301 1062L641.603 1037V987ZM648.301 880L691.603 905V955L648.301 980L605 955V905L648.301 880ZM741.603 823L698.301 798L655 823V873L698.301 898L741.603 873V823ZM698.301 962L741.603 987V1037L698.301 1062L655 1037V987L698.301 962ZM791.603 905L748.301 880L705 905V955L748.301 980L791.603 955V905Z" fill="#721400"/>
<path d="M142.967 630.98C133.639 630.98 125.455 628.956 118.415 624.908C111.375 620.772 105.963 615.14 102.179 608.012C98.3954 600.796 96.5034 592.7 96.5034 583.724C96.5034 573.956 98.5274 565.42 102.575 558.116C106.711 550.812 112.519 545.224 119.999 541.352C127.479 537.392 136.191 535.412 146.135 535.412C154.143 535.412 161.887 536.512 169.367 538.712L171.479 561.548L171.215 561.68C168.575 557.632 165.011 554.552 160.523 552.44C156.123 550.328 151.283 549.272 146.003 549.272C136.763 549.272 129.459 552.264 124.091 558.248C118.811 564.144 116.171 572.196 116.171 582.404C116.171 592.788 118.591 601.148 123.431 607.484C128.359 613.82 135.311 616.988 144.287 616.988C151.063 616.988 156.783 615.756 161.447 613.292C166.111 610.74 170.291 607.044 173.987 602.204L174.251 602.336L171.083 625.964C161.579 629.308 152.207 630.98 142.967 630.98Z" fill="white"/>
<path d="M228.831 631.64C219.239 631.64 210.879 629.572 203.751 625.436C196.623 621.3 191.167 615.624 187.383 608.408C183.687 601.192 181.839 593.052 181.839 583.988C181.839 574.132 183.775 565.508 187.647 558.116C191.607 550.636 197.283 544.872 204.675 540.824C212.067 536.688 220.779 534.62 230.811 534.62C240.139 534.62 248.367 536.6 255.495 540.56C262.623 544.52 268.123 550.108 271.995 557.324C275.955 564.54 277.935 572.812 277.935 582.14C277.935 591.82 275.867 600.444 271.731 608.012C267.683 615.492 261.919 621.3 254.439 625.436C247.047 629.572 238.511 631.64 228.831 631.64ZM230.151 617.912C235.519 617.912 240.315 616.504 244.539 613.688C248.851 610.872 252.195 606.868 254.571 601.676C257.035 596.396 258.267 590.324 258.267 583.46C258.267 572.372 255.715 563.748 250.611 557.588C245.507 551.428 238.467 548.348 229.491 548.348C223.771 548.348 218.799 549.8 214.575 552.704C210.351 555.52 207.095 559.524 204.807 564.716C202.607 569.82 201.507 575.804 201.507 582.668C201.507 593.668 203.971 602.292 208.899 608.54C213.827 614.788 220.911 617.912 230.151 617.912Z" fill="white"/>
<path d="M287.376 628.736C289.664 626.184 291.468 623.456 292.788 620.552C294.108 617.56 294.944 613.908 295.296 609.596L298.728 558.38L298.86 555.872C298.86 552 298.244 548.348 297.012 544.916C295.868 541.484 294.064 539.02 291.6 537.524L291.732 537.26H321.96C321.344 537.964 321.036 539.02 321.036 540.428C321.036 542.804 322.048 545.752 324.072 549.272L337.14 571.712C341.54 579.28 344.268 586.54 345.324 593.492H345.852C346.732 589.884 347.876 586.584 349.284 583.592C350.78 580.512 352.892 576.552 355.62 571.712L368.556 548.876C370.492 545.356 371.46 542.496 371.46 540.296C371.46 538.976 371.152 537.964 370.536 537.26H401.028L401.16 537.524C398.432 539.02 396.408 541.88 395.088 546.104C393.768 550.24 393.24 554.332 393.504 558.38L397.596 609.596C397.86 613.028 398.652 616.548 399.972 620.156C401.38 623.676 403.184 626.536 405.384 628.736L405.252 629H375.024L374.892 628.736C376.124 627.68 377.18 625.92 378.06 623.456C378.94 620.992 379.38 618.176 379.38 615.008C379.38 613.864 379.336 612.984 379.248 612.368L377.136 585.044C376.96 582.052 376.872 579.676 376.872 577.916C376.872 573.076 377.224 567.884 377.928 562.34H377.4C376.08 566.564 374.628 570.392 373.044 573.824C371.46 577.168 369.524 580.82 367.236 584.78L352.584 609.596C348.888 615.756 346.82 621.08 346.38 625.568H345.324C344.708 620.992 342.508 615.712 338.724 609.728L323.016 584.648C320.816 581.128 318.968 577.652 317.472 574.22C316.064 570.788 314.744 566.828 313.512 562.34H312.984C313.6 568.5 313.908 574 313.908 578.84C313.908 581.744 313.864 583.812 313.776 585.044L312.324 612.368C312.148 616.24 312.456 619.628 313.248 622.532C314.128 625.436 315.272 627.504 316.68 628.736L316.548 629H287.508L287.376 628.736Z" fill="white"/>
<path d="M468.217 580.16C471.825 580.6 475.125 581.876 478.117 583.988C481.197 586.1 483.617 588.74 485.377 591.908C487.225 595.076 488.149 598.42 488.149 601.94C488.149 610.388 485.289 617.032 479.569 621.872C473.849 626.624 466.413 629 457.261 629H417.133V628.736C419.245 627.152 421.049 624.732 422.545 621.476C424.129 618.132 424.921 613.776 424.921 608.408V557.72C424.921 552.616 424.173 548.392 422.677 545.048C421.269 541.616 419.421 539.108 417.133 537.524V537.26H453.565C463.509 537.26 470.945 539.152 475.873 542.936C480.889 546.72 483.397 552.528 483.397 560.36C483.397 563.616 482.649 566.652 481.153 569.468C479.745 572.284 477.853 574.616 475.477 576.464C473.189 578.224 470.769 579.324 468.217 579.764V580.16ZM443.005 550.196V573.956H452.509C456.381 573.956 459.373 572.9 461.485 570.788C463.685 568.588 464.785 565.42 464.785 561.284C464.785 557.588 463.729 554.816 461.617 552.968C459.505 551.12 456.469 550.196 452.509 550.196H443.005ZM454.621 616.064C459.461 616.064 463.113 614.744 465.577 612.104C468.041 609.376 469.273 605.768 469.273 601.28C469.273 596.792 468.041 593.272 465.577 590.72C463.113 588.08 459.461 586.76 454.621 586.76H443.005V616.064H454.621Z" fill="white"/>
<path d="M571.813 607.352C573.485 612.104 575.553 616.46 578.017 620.42C580.481 624.292 582.725 627.064 584.749 628.736V629H554.917V628.736C556.325 627.68 557.029 625.656 557.029 622.664C557.029 619.848 556.325 616.46 554.917 612.5L553.729 609.332H519.673L518.485 612.5C517.077 616.108 516.373 619.452 516.373 622.532C516.373 625.612 516.989 627.68 518.221 628.736V629H490.501V628.736C492.525 626.976 494.725 624.16 497.101 620.288C499.565 616.416 501.633 612.104 503.305 607.352L522.181 552.968C522.973 550.592 523.369 548.436 523.369 546.5C523.369 544.476 523.017 542.672 522.313 541.088C521.609 539.504 520.773 538.316 519.805 537.524V537.26H554.785V537.524C553.817 538.404 552.981 539.636 552.277 541.22C551.573 542.716 551.221 544.476 551.221 546.5C551.221 548.436 551.617 550.592 552.409 552.968L571.813 607.352ZM536.305 554.816C535.777 559.304 534.941 563.572 533.797 567.62C532.653 571.58 531.025 576.508 528.913 582.404L524.029 596.396H549.373L544.489 582.404C542.289 576.068 540.617 571.008 539.473 567.224C538.329 563.44 537.449 559.304 536.833 554.816H536.305Z" fill="white"/>
<path d="M652.692 560.36L652.428 560.492C650.844 557.676 648.512 555.344 645.432 553.496C642.44 551.648 639.052 550.724 635.268 550.724H625.368V608.144C625.368 613.512 626.116 618 627.612 621.608C629.196 625.128 631.132 627.504 633.42 628.736V629H599.232V628.736C601.344 627.504 603.192 625.084 604.776 621.476C606.448 617.78 607.284 613.336 607.284 608.144V550.724H597.252C593.468 550.724 590.036 551.648 586.956 553.496C583.964 555.344 581.676 557.676 580.092 560.492L579.828 560.36L582.072 536.204C587.44 536.908 593.468 537.26 600.156 537.26H632.364C639.052 537.26 645.08 536.908 650.448 536.204L652.692 560.36Z" fill="white"/>
<path d="M243.45 736.98C234.122 736.98 225.938 734.956 218.898 730.908C211.858 726.772 206.446 721.14 202.662 714.012C198.878 706.796 196.986 698.7 196.986 689.724C196.986 679.956 199.01 671.42 203.058 664.116C207.194 656.812 213.002 651.224 220.482 647.352C227.962 643.392 236.674 641.412 246.618 641.412C254.626 641.412 262.37 642.512 269.85 644.712L271.962 667.548L271.698 667.68C269.058 663.632 265.494 660.552 261.006 658.44C256.606 656.328 251.766 655.272 246.486 655.272C237.246 655.272 229.942 658.264 224.574 664.248C219.294 670.144 216.654 678.196 216.654 688.404C216.654 698.788 219.074 707.148 223.914 713.484C228.842 719.82 235.794 722.988 244.77 722.988C251.546 722.988 257.266 721.756 261.93 719.292C266.594 716.74 270.774 713.044 274.47 708.204L274.734 708.336L271.566 731.964C262.062 735.308 252.69 736.98 243.45 736.98Z" fill="white"/>
<path d="M359.182 713.352C360.854 718.104 362.922 722.46 365.386 726.42C367.85 730.292 370.094 733.064 372.118 734.736V735H342.286V734.736C343.694 733.68 344.398 731.656 344.398 728.664C344.398 725.848 343.694 722.46 342.286 718.5L341.098 715.332H307.042L305.854 718.5C304.446 722.108 303.742 725.452 303.742 728.532C303.742 731.612 304.358 733.68 305.59 734.736V735H277.87V734.736C279.894 732.976 282.094 730.16 284.47 726.288C286.934 722.416 289.002 718.104 290.674 713.352L309.55 658.968C310.342 656.592 310.738 654.436 310.738 652.5C310.738 650.476 310.386 648.672 309.682 647.088C308.978 645.504 308.142 644.316 307.174 643.524V643.26H342.154V643.524C341.186 644.404 340.35 645.636 339.646 647.22C338.942 648.716 338.59 650.476 338.59 652.5C338.59 654.436 338.986 656.592 339.778 658.968L359.182 713.352ZM323.674 660.816C323.146 665.304 322.31 669.572 321.166 673.62C320.022 677.58 318.394 682.508 316.282 688.404L311.398 702.396H336.742L331.858 688.404C329.658 682.068 327.986 677.008 326.842 673.224C325.698 669.44 324.818 665.304 324.202 660.816H323.674Z" fill="white"/>
<path d="M442.709 717.18C447.813 725.364 453.533 730.512 459.869 732.624V732.888L432.809 737.772C431.137 732.756 428.893 727.872 426.077 723.12L405.617 688.14H411.953C417.761 688.14 422.161 686.864 425.153 684.312C428.145 681.672 429.641 677.492 429.641 671.772C429.641 666.932 428.101 663.104 425.021 660.288C421.941 657.472 417.585 656.108 411.953 656.196L402.713 656.328V715.728C402.713 720.48 403.373 724.528 404.693 727.872C406.013 731.128 407.553 733.416 409.313 734.736V735H377.501V734.736C379.437 733.504 381.109 731.216 382.517 727.872C383.925 724.44 384.629 720.216 384.629 715.2V662.532C384.629 657.692 383.925 653.644 382.517 650.388C381.109 647.044 379.437 644.756 377.501 643.524V643.26H414.989C425.461 643.26 433.645 645.768 439.541 650.784C445.437 655.712 448.385 662.488 448.385 671.112C448.385 677.976 446.801 683.608 443.633 688.008C440.553 692.32 436.153 695.4 430.433 697.248L442.709 717.18Z" fill="white"/>
<path d="M464.771 734.736C466.707 733.416 468.379 731.084 469.786 727.74C471.194 724.396 471.899 720.216 471.899 715.2V663.06C471.899 658.484 471.151 654.392 469.655 650.784C468.247 647.176 466.618 644.756 464.771 643.524V643.26H503.051C512.29 643.26 520.343 645.108 527.207 648.804C534.159 652.412 539.527 657.648 543.311 664.512C547.095 671.376 548.987 679.56 548.987 689.064C548.987 703.76 544.983 715.112 536.975 723.12C528.967 731.04 516.954 735 500.939 735H464.771V734.736ZM502.259 721.932C511.059 721.932 517.791 719.116 522.455 713.484C527.119 707.852 529.451 699.712 529.451 689.064C529.451 677.888 527.163 669.66 522.587 664.38C518.011 659.012 511.014 656.328 501.599 656.328H489.983V721.932H502.259Z" fill="white"/>
<path d="M312.823 319.823L372 295.311L431.177 319.823L455.689 379L431.177 438.177L372 462.689L312.823 438.177L288.311 379L312.823 319.823Z" fill="#721400" stroke="white" stroke-width="6.1187"/>
<path fill-rule="evenodd" clip-rule="evenodd" d="M336.242 425.27C336.242 429.242 335.107 432.47 332.837 434.953V435.089H314.17V441.23L372 461.445L429.829 441.23V435.089H410.831V434.953C408.632 431.973 407.532 428.639 407.532 424.951C407.532 423.177 407.816 421.049 408.383 418.567L419.13 373.771C419.769 371.146 420.691 368.699 421.897 366.429C423.103 364.088 424.592 362.421 426.366 361.428V361.215H402.744L402.638 361.428C404.837 363.414 405.936 366.251 405.936 369.94C405.936 371.43 405.723 372.99 405.298 374.622L400.084 395.903C398.382 403.209 397.282 410.444 396.785 417.609H396.36C395.509 413.566 394.48 409.841 393.274 406.437C392.139 403.032 390.366 398.917 387.954 394.094L377.633 373.877C376.285 371.252 375.256 368.982 374.547 367.067C373.838 365.081 373.128 362.917 372.419 360.576H371.781C370.787 364.265 369.05 368.734 366.567 373.983L355.182 397.286C351.848 404.096 349.365 410.87 347.733 417.609H347.308C347.166 413.495 346.882 410.019 346.457 407.181C346.102 404.344 345.534 401.4 344.754 398.35L338.689 374.622C338.334 373.274 338.157 371.784 338.157 370.153C338.157 366.18 339.257 363.272 341.456 361.428V361.215H315.706V361.428C318.827 363.13 321.239 367.209 322.941 373.664L335.284 418.567C335.923 420.907 336.242 423.142 336.242 425.27ZM380.056 435.089C385.581 433.88 388.886 426.063 388.886 420.511C388.886 415.435 387.67 412.712 386.607 410.329L386.607 410.329C386.407 409.88 386.212 409.444 386.032 409.006C386.032 413.233 383.558 414.894 382.889 414.894C382.889 409.855 380.469 405.34 377.001 401.963C373.534 398.585 373.209 395.696 373.209 394.178C373.209 393.116 373.368 392.488 373.612 391.524C373.717 391.112 373.837 390.638 373.967 390.042C366.974 393.876 366.975 397.1 366.978 401.718L366.978 401.963C366.978 405.969 365.256 408.87 364.37 410.363L364.37 410.363C364.206 410.641 364.07 410.869 363.98 411.047C362.535 407.666 359.765 406.568 358.561 406.442C358.91 406.803 359.609 407.822 359.609 409.006C359.609 409.53 359.245 410.503 358.775 411.761C357.916 414.061 356.701 417.313 356.701 420.511C356.701 429.919 363.112 434.02 366.86 435.089H367.127C365.26 433.618 363.022 430.602 363.022 427.356C363.022 424.581 363.91 422.505 364.373 421.421C364.537 421.038 364.648 420.778 364.648 420.656C364.648 420.615 364.648 420.576 364.649 420.536C364.653 420.108 364.657 419.675 364.178 418.85C365.894 419.139 366.689 420.168 367.411 421.414C369.091 420.042 369.109 418.85 369.109 414.714C369.109 411.405 371.999 409.434 373.443 408.862C373.317 409.163 373.064 410.137 373.064 411.625C373.064 413.485 374.112 415.093 376.333 417.278C378.555 419.464 378.952 422.733 378.952 424.069C380.09 422.823 380.668 421.703 380.668 420.132C381.715 421.757 382.42 425.261 382.42 427.681C382.42 431.46 380.624 433.78 378.263 435.089H380.056Z" fill="white"/>
<path d="M382.747 315.848L374.28 318.128L372 326.595L369.72 318.128L361.253 315.848L369.72 313.568L372 305.101L374.28 313.568L382.747 315.848Z" fill="white"/>
<path d="M361.253 335.807L352.786 338.087L350.506 346.554L348.226 338.087L339.759 335.807L348.226 333.527L350.506 325.06L352.786 333.527L361.253 335.807Z" fill="white"/>
<path d="M404.241 335.807L395.774 338.087L393.494 346.554L391.214 338.087L382.747 335.807L391.214 333.527L393.494 325.06L395.774 333.527L404.241 335.807Z" fill="white"/>
</g>
<rect x="10" y="10" width="724.094" height="1019.37" rx="10" stroke="#1A1B26" stroke-width="20"/>
<defs>
<clipPath id="clip0_265_9723">
<rect width="744.094" height="1039.37" rx="20" fill="white"/>
</clipPath>
</defs>
</svg>
